<svg xmlns="http://www.w3.org/2000/svg" version="1.1" width="600px" height="600px" viewBox="0 0 200 200" style="overflow:hidden!important;"><g id="svga-group-wrapper"><g id="svga-group-backs-single"></g><g id="svga-group-humanwrap-move" transform="matrix(1,0,0,1,0,0)"><g id="svga-group-humanwrap" transform="matrix(1.0000001,0,0,1.0000001,-0.000010030441671915469,-0.000011989218904773224)"><g id="svga-group-hair-back-move" transform="matrix(1,0,0,1,0,0)"><g id="svga-group-hair-back"></g></g><g id="svga-group-humanbody-back"><path id="SvgjsPath11845" d="M77.6 118.3c0 19.3 3.4 44.1-10 51.9-13.4 7.9-31.9 11.3-37.8 22s-4.4 25.3-4.4 25.3h149.3s.7-18.9-5.1-26.4c-8.1-10.4-27.8-15.5-37.7-20.9s-13.4-25.1-13.4-52.4l-40.9.5z" fill="#ffffff" stroke-width="none" opacity="1"></path></g><g id="svga-group-chinshadow-single"></g><g id="svga-group-humanbody-front"><path id="SvgjsPath11846" d="M175.8 218.7H24.4l-.1-1c-.1-.6-1.5-15.1 4.5-26 4.1-7.4 13.5-11.3 23.5-15.5 5-2.1 10.2-4.3 14.8-6.9 10.6-6.2 10.1-23.9 9.6-41-.1-3.5-.2-6.8-.2-10v-1.1l43.2-.4v1.1c0 29.9 4.2 46.7 12.8 51.4 2.9 1.6 6.7 3.2 10.8 4.9 10 4.1 21.3 8.8 27.2 16.3 6.1 7.7 5.4 26.4 5.4 27.1l-.1 1.1zm-149.3-2.2h147.1c0-4.1-.2-18.5-4.9-24.6-5.5-7-16.6-11.6-26.3-15.6-4.1-1.7-8-3.3-11-5-5.1-2.8-8.7-8.9-10.9-18.7-2-8.4-2.9-19.4-3-33.5l-38.6.4c0 2.8.1 5.7.2 8.8.5 17.8 1 36.1-10.7 43-4.7 2.7-9.9 4.9-15 7.1-9.6 4-18.7 7.8-22.4 14.5-5 8.6-4.7 20.1-4.5 23.6z" fill="#000000" stroke-width="none" opacity="1"></path><path id="SvgjsPath11847" d="M93.9 153.8c-.5 1.8-.4 3.4.5 5.2.8 1.6 2.1 2.7 3.9 2.9.4 0 .7-.5.5-.8-1.6-2.2-3.5-4.2-3.7-7.1 0-.7-1-.9-1.2-.2z" fill="#000000" stroke-width="none" opacity="1"></path><path id="SvgjsPath11848" d="M112.5 187.5c8.8.5 18.1-.7 26.6-2.9.7-.2.6-1.4-.2-1.3-8.8 1.1-17.7 2-26.5 3.3-.5.1-.3.9.1.9z" fill="#000000" stroke-width="none" opacity="1"></path><path id="SvgjsPath11849" d="M63.1 182.5c3.8.9 7.6 1.9 11.5 2.8 3.6.8 7.4 2 11.1 2.1.7 0 .8-.9.2-1.2-3.5-1.4-7.5-1.7-11.2-2.5-3.8-.7-7.5-1.3-11.3-2-.5 0-.7.7-.3.8z" fill="#000000" stroke-width="none" opacity="1"></path></g><g id="svga-group-clothes-single"><path id="SvgjsPath11735" d="M77.6 140.5s-8.6 2.8-13.1 5.9-5.6 10-5.6 10-2.3-3.3-4.5 1.9-1.8 5.6-4 7.9c-2.3 2.3-1 6.8-.2 7.9 0 0-4 2.8-8.4 4s-10.3 4.2-12.1 6.6-9.6 12.8-5.6 34h153.6s0-21-3-27.5-7.7-7.5-7.7-7.5-9.8-7-11.7-8.2-11-4.2-11-4.2-.5-4.2-1.2-7.2-4.6-8.1-6.6-8.4c-2.1-.4-3-2.8-5.6-7-2.6-4.2-5.8-6.5-7.3-7-1.6-.5-3.3-.2-3.3-.2s1.2 8.9 1.2 13.6-.9 7.7-4.6 12.2c-3.7 4.6-6.1 5.8-11.4 9.3s-6.3 5.4-6.3 5.4-3.2-5.1-8.8-8.6S83 166 79 162.5s-1.1-6.1-1.4-11.2c-.3-5.1 0-10.8 0-10.8z" fill="#ffffff" stroke-width="none" opacity="1"></path><path id="SvgjsPath11736" d="M175.6 190.8c-2.8-6.1-7.1-7.7-8.2-8-1.3-.9-9.8-7-11.6-8.1-1.8-1.1-8.5-3.4-10.6-4.1-.2-1.3-.6-4.3-1.2-6.6-.7-3-4.7-8.7-7.5-9.1-1.1-.2-1.8-1.3-3.3-3.9-.5-.8-1-1.6-1.6-2.6-2.6-4.2-5.9-6.8-7.9-7.4-1.8-.6-3.8-.2-3.8-.2-.5.1-.9.6-.8 1.1 0 .1 1.2 8.9 1.2 13.5 0 4.2-.7 7.1-4.3 11.6-3 3.8-5.1 5.1-9 7.6-.7.4-1.4.9-2.2 1.4-3.1 2.1-4.8 3.6-5.7 4.6-1.3-1.8-4.1-5.1-8.3-7.7-3.3-2.1-5.2-4.4-7.1-6.6-1.2-1.4-2.5-2.9-4.1-4.4-2.2-1.9-1.9-3.4-1.5-5.7.3-1.4.6-2.9.4-4.8-.3-4.9 0-10.7 0-10.7 0-.3-.1-.6-.4-.9-.3-.2-.6-.3-.9-.2-.4.1-8.8 2.9-13.4 6.1-3.5 2.4-5 6.7-5.7 9-.4-.2-.8-.3-1.3-.2-1.4.1-2.5 1.3-3.5 3.6-.7 1.7-1.2 2.9-1.5 3.8-.7 1.9-.9 2.4-2.3 3.8-2.2 2.2-1.7 6.2-.8 8.3-1.3.8-4.3 2.5-7.3 3.4-4.6 1.3-10.7 4.3-12.6 7l-.1.2c-6.4 8.9-8.3 20.6-5.6 34.6.1.5.5.8 1 .8h153.6c.6 0 1-.4 1-1 0-1.2-.1-21.6-3.1-28.2zm-33-23.6c.3 1.9.6 3.7.6 4.1 0 .2-.1.8-.6 1.6.3-1.8.2-3.8 0-5.7zm-20.7-19.4c.5.2 1.2.5 1.9.9-.2.1-.3.1-.5.1l-1.2.3c-.2-.5-.2-.9-.2-1.3zm-.1 12.5h1.5c-.6.4-1.3 1-2 1.6.2-.5.4-1 .5-1.6zm4.2-3.1c-1.2.1-2.6.4-3.8.6.1-.5.1-1 .1-1.5 1.3-.1 2.7-.3 3.9-.5 0 .5-.1 1-.2 1.4zm.1-5c.1.5.1.9.1 1.3-1.3 0-2.7.4-3.9.8 0-.5 0-1-.1-1.5 1.3-.2 2.7-.3 3.9-.6zm-3.8 3.6v-1.1c.7-.2 1.4-.3 2.2-.4.6-.1 1.2-.1 1.8-.2v1.1c-1.3 0-2.7.3-4 .6zm-.1-3.5c0-.4-.1-.8-.1-1.1.6-.1 1.1-.1 1.7-.2.6-.1 1.2-.2 1.7-.3.2.3.3.6.4 1-1.2 0-2.5.3-3.7.6zm1.9-2c-.6.1-1.3.2-1.9.4 0-.3-.1-.7-.1-1 .4-.1.9-.2 1.3-.3.3-.1.7-.1 1-.3l.9.9c-.5.1-.9.2-1.2.3zm-1.9 8c1.1-.1 2.4-.2 3.5-.4-.3.7-.9 1.3-1.6 1.8-.7 0-1.5.1-2.2.1l.3-1.5zM76 159.6c-1.2-1.1-2.3-2.2-2.7-3.1-.1-.1-.1-.2-.1-.4.9.7 1.8 1.5 2.8 2.1-.1.5-.1 1 0 1.4zm-.5-10.9c.3.4.7.7 1.1 1 0 .4 0 .9.1 1.3-.3-.2-.5-.4-.8-.6-.4-.3-.7-.6-1.1-.9.1-.2.4-.5.7-.8zm.3-.3c.2-.2.4-.3.6-.4v1c-.1-.2-.3-.4-.6-.6zm-1.4 1.5c.4.4.8.7 1.2 1 .3.3.6.6 1 .8v1c-.8-.7-1.8-1.4-2.7-2 .2-.2.3-.5.5-.8zm-.7 1.4c.9.8 1.8 1.7 2.8 2.3 0 .3-.1.6-.1.9-.4-.3-.9-.6-1.4-.9-.6-.4-1.2-.8-1.7-1.2.1-.4.3-.8.4-1.1zm-.5 1.5c.5.4 1.1.8 1.6 1.2.5.4 1 .8 1.6 1.1 0 .2-.1.4-.1.5 0 .1-.1.3-.1.4-.5-.3-1-.6-1.4-.9l-1.8-1.2c0-.3.1-.7.2-1.1zm2.7 4.8c-.9-.8-1.9-1.5-2.9-2.1v-1c.4.4.9.7 1.4 1.1.5.4 1.1.8 1.7 1.2-.1.2-.1.5-.2.8zm-22.1 4.8c.3-.9.8-2 1.5-3.7.9-2.1 1.6-2.3 1.8-2.4.3 0 .6.2.8.4.1 2.2 1.5 13.1 16.7 21.5.2.1.3.1.5.1.3 0 .7-.2.8-.5.1.2.2.5.3.7.1.1.3.1.3-.1-.2-2-.6-3.7-.3-5.7 0-.2-.3-.4-.4-.1-.2 1.2-.4 2.5-.2 3.8l-.1-.1c-.1-.1-.2-.1-.3-.2-.3-1.7-.5-3.3-.4-5 0-.3-.4-.3-.4 0-.2 1.5-.2 3.1.1 4.6-.4-.3-.9-.5-1.3-.8-.2-.5-.3-1.1-.4-1.6-.2-1.1-.1-2.1.1-3.1 0-.2-.3-.3-.3-.1-.3 1.3-.4 3 0 4.4-.4-.2-.7-.5-1-.7-.1-2.3-.2-4.5.1-6.8 0-.3-.4-.2-.4 0-.3 2.1-.4 4.2-.2 6.4-.6-.4-1.2-.9-1.7-1.4-.1-2.1-.1-4.2.3-6.4 0-.2-.2-.3-.3-.1-.5 2-.7 4-.6 6-.4-.4-.8-.8-1.2-1.1 0-1-.1-2.1 0-3.1.1-1.4.4-2.8.8-4.1.1-.2-.2-.3-.3-.1-.7 2-1.3 4.5-1 6.7-.4-.4-.7-.8-1.1-1.1-.2-1 .2-3.2.2-3.5.2-1.4.5-2.7 1-4 .1-.2-.2-.2-.3-.1-.8 2.3-1.3 4.7-1.4 7.1-.3-.3-.5-.6-.8-1 .1-.1.1-.2.1-.2.1-.1-.1-.3-.2-.2.2-2.9.8-5.8 1.8-8.5.1-.2-.2-.3-.3-.1-1 2.7-1.7 5.5-1.9 8.3-.3-.5-.6-.9-.9-1.4.7-2.8 1.1-5.7 2.1-8.5.1-.3-.3-.4-.4-.1-.9 2.5-1.8 5.3-2 8-.4-.6-.7-1.2-1-1.8.7-3 1.1-5.8 2.5-8.6.1-.2-.2-.4-.3-.2-1.3 2.4-2.4 5.3-2.6 8.1-.3-.8-.6-1.6-.8-2.2 1.2-2.8 1.9-5.8 3.1-8.6.1-.2-.2-.4-.3-.2-1.2 2.5-2.6 5.3-3.1 8-.3-1.4-.4-2.3-.4-2.6 1.2-2.5 2.1-5.1 3.3-7.6.5-.6 1.1-1.2 1.8-1.7 3.3-2.3 8.9-4.4 11.5-5.3 0 1-.1 2.4-.1 3.9-1.9.7-3.5 2.3-4.5 4.5-1.1 2.5-1.3 5.3-.5 7.1 1.1 2.4 5.2 5.4 8.7 7.8.3.2.5.3.6.4l1.5 1.8c2 2.3 4 4.8 7.6 7 5.3 3.3 8.4 8.2 8.4 8.2.2.3.5.5.9.5.3 0 .7-.2.8-.5 0 0 1.1-1.8 6-5.1.8-.5 1.5-1 2.2-1.4 3.2-2.1 5.4-3.5 7.8-6.2.2 0 .4-.1.5-.3.1-.1 5.5-6.1 8.3-7.9 3.5-2.4 3.9-5.5 3.3-9.8-.6-4.3-5-5.9-6.5-6.3-.2-1.3-.3-2.4-.4-3.2.5 0 1.2 0 1.9.2 1.4.5 4.3 2.6 6.8 6.6.6.9 1.1 1.8 1.5 2.6 0 0 0 .1.1.1l-.7-.7c-.1-.1-.3.1-.2.2.7.8 1.3 1.7 2 2.5v.1s.3 1.1.3 2.9c-.5-.8-1.1-1.6-1.4-2.5-.1-.2-.4-.1-.4.1.4 1.2.9 2.4 1.8 3.3 0 .3 0 .7-.1 1.1-.5-.7-1.1-1.3-1.5-1.9-.1-.2-.5 0-.3.2.5.7.9 1.4 1.4 2.1.1.2.2.3.3.5-.1.6-.2 1.2-.3 1.9-.5-.6-1-1.2-1.4-1.8-.1-.2-.4.1-.3.2.5.7 1 1.6 1.6 2.3-.1.5-.3 1.1-.6 1.7-.2-.4-.4-.9-.5-1.3-.1-.2-.5-.1-.4.1.2.6.4 1.4.6 2.1-.2.5-.5 1.1-.9 1.6-.1-.3-.1-.6-.1-.9 0-.3-.4-.3-.4 0 0 .5.1 1.1.1 1.6-.4.5-.8 1.1-1.2 1.6-.1-.6-.2-1.3-.3-1.9 0-.2-.4-.2-.4.1.1.8.1 1.6.2 2.3-.4.4-.8.9-1.2 1.3 0-.8-.1-1.5-.2-2.3 0-.3-.4-.3-.4 0 0 .9-.1 1.9 0 2.9-.3.3-.6.6-.9.8 0-.2 0-.5-.1-.7 0-.8-.1-1.5-.1-2.2 0-.3-.4-.3-.4 0 0 .8 0 1.5.1 2.2v1.2c-.4.4-.9.7-1.3 1.1 0-.2-.1-.4-.1-.7 0-.6 0-1.1.1-1.7 0-.3-.3-.4-.4-.1-.2.9-.4 2-.1 2.9-.3.3-.7.5-1 .8 0-.4-.1-.8-.1-1.2 0-.3-.5-.3-.5 0v1.6c-.4.3-.7.5-1.1.8 0-.4-.1-.9-.1-1.3 0-.3-.5-.3-.5 0 0 .6 0 1.1.1 1.6-.4.3-.8.5-1.1.7v-1.8c0-.3-.4-.3-.4 0 0 .6-.1 1.1-.1 1.7v.5c-.4.2-.7.4-1.1.6v-1.4c0-.3-.4-.2-.4 0-.1.5-.1 1.1-.1 1.6-.2.1-.5.2-.7.3-.1 0-.1 0-.1.1 0-.4.1-.7.1-1.1 0-.2-.4-.2-.4 0-.1.4-.1.8-.2 1.3-.3.1-.7.3-1 .4v-1.3c0-.2-.4-.2-.4 0 0 .5-.1 1-.2 1.5-.5.2-1 .4-1.4.5v-1c0-.3-.4-.3-.4 0 0 .4-.1.8-.1 1.2-.3.1-.6.2-.8.3 0-.4.1-.7.1-1.1 0-.2-.4-.3-.4-.1-.1.4-.1.9-.2 1.3-.2.1-.4.1-.4.1-.5.2-.8.7-.7 1.2.1.4.5.7 1 .7h.3c.1 0 1.5-.5 4.4-1.6v.1c0 .2.3.1.3 0s0-.1.1-.2c.4-.1.7-.3 1.1-.4 3.7-1.5 13.6-8.3 16.3-15 1.5-3.6 1.7-6.9 1.6-9 .4.2.8.4 1.2.4 1.4.2 5 4.6 5.8 7.4-.1 0-.2.1-.2.2.3 3.2.1 6.4.2 9.5-.2.2-.4.5-.6.7v-8.7c0-.2-.4-.2-.4 0-.1 3.1-.2 6.2-.2 9.3l-.5.5c0-2.4-.3-4.8-.4-7.2 0-.2-.4-.3-.4 0 .1 2.6-.1 5.2.2 7.8-.2.1-.4.3-.5.4.1-2 0-4.1-.1-6.1 0-.2-.4-.2-.4 0-.1 2.2-.4 4.5-.3 6.7-.2.2-.5.3-.7.5.2-2 .1-4 0-6 0-.2-.4-.2-.4 0 0 2.1-.2 4.3-.3 6.4-.4.2-.9.5-1.4.7.2-1.9 0-3.9 0-5.8 0-.3-.4-.3-.4 0-.1 2-.3 4.1-.2 6.1-.4.2-.8.4-1.3.6.2-1.3.2-2.7.3-4 0-.3-.4-.3-.4 0-.2 1.4-.5 2.9-.6 4.3-.4.2-.9.4-1.3.5.2-1.4.2-2.9.6-4.3.1-.3-.4-.4-.4-.1-.3 1.4-.8 3.1-.9 4.7-.5.2-.9.3-1.4.5.1-1.2 0-2.6.1-3.8 0-.3-.4-.3-.4 0-.1 1.2-.4 2.7-.3 4-.6.2-1.3.4-1.9.7 0-.4 0-.9.1-1.3.1-.9.3-1.7.6-2.5.1-.2-.3-.3-.4-.1-.5 1.2-1 2.7-1 4.1l-.9.3v-.1c.1-.7.1-1.4 0-2.1 0-.3-.5-.3-.5 0 0 .7 0 1.3-.1 2 0 .1-.1.3-.1.5-.4.1-.8.3-1.2.4.1-.6.1-1.2.1-1.8 0-.3-.4-.3-.5 0-.1.6-.2 1.3-.3 2-.5.1-1 .3-1.5.5v-1c0-.3-.5-.3-.4 0v1.2c-.5.2-1 .3-1.5.5.1-.5.3-1.1.4-1.6.1-.3-.3-.4-.4-.1-.2.6-.4 1.3-.6 1.9-.4.1-.8.2-1.2.4.1-.6.2-1.1.3-1.6.1-.3-.4-.4-.4-.1-.2.6-.4 1.3-.5 1.9-.2.1-.4.1-.6.2.1-.4.2-.9.4-1.3.1-.2-.3-.4-.4-.1-.2.5-.4 1-.6 1.6-.2.1-.3.1-.5.1 0-.2.1-.4.1-.6.1-.2-.3-.3-.3-.1-.1.3-.2.5-.3.8-.5.1-.9.3-1.3.4 0-.1-.2-.2-.3 0 0 .1-.1.1-.1.1-.8.2-1.6.4-2.2.6-1.6.4-2.7.8-3.1.9-.3.1-1.2.2-2.4.2-.2-1.3-.6-2.7-1.5-4.8-.2-.5-.8-.7-1.3-.5s-.7.8-.5 1.3c.8 1.7 1.1 2.9 1.3 3.9H101c-.3-.4-.6-.7-1-1-.2-.2-.5.1-.3.3l.7.7h-1.2c-.2-.2-.4-.5-.6-.7-.4-.6-.7-1.2-.9-1.9-.1-.3-.5-.2-.4.1.2.8.6 1.7 1.1 2.5-.4 0-.9 0-1.3-.1-.1-1.8-.1-3.5-.1-4.4 0-.6-.4-1-1-1s-1 .4-1 1c0 .4 0 2.2.1 4.3h-.2c-.3-.4-.7-.8-.9-1.3-.4-.7-.6-1.5-.7-2.3 0-.2-.4-.3-.4 0 .1 1.1.4 2.6 1.2 3.5-.5 0-.9-.1-1.4-.1-.2-.4-.5-.9-.7-1.3-.3-.7-.5-1.5-.5-2.3 0-.2-.4-.3-.4 0 0 1.1.3 2.6 1 3.6-.3 0-.5 0-.8-.1-.2-.6-.7-1.1-.9-1.7-.3-.7-.4-1.4-.4-2.1 0-.3-.4-.3-.4 0-.1 1.1.2 2.9 1.1 3.8-.4 0-.8-.1-1.3-.1-.3-.6-.8-1.2-1.1-1.8-.3-.8-.5-1.6-.5-2.4 0-.3-.4-.3-.4 0 0 1.3.3 3.1 1.3 4.1-.6-.1-1.2-.1-1.8-.2-.3-.4-.5-.9-.7-1.4-.3-.8-.4-1.6-.5-2.4 0-.3-.5-.3-.4 0 0 1.2.3 2.6.9 3.7-.4-.1-.9-.1-1.3-.2-.2-.4-.5-.9-.7-1.4-.3-.8-.5-1.5-.5-2.3 0-.3-.4-.3-.4 0 .1 1.2.3 2.5 1 3.6-.5-.1-.9-.1-1.3-.2-.4-.6-.8-1.1-1-1.7-.4-.8-.6-1.7-.8-2.6 0-.2-.4-.1-.3.1.1 1.3.5 3 1.3 4.1-.7-.1-1.3-.3-1.8-.4-1-1.4-1.8-2.7-2.2-4.5-.1-.2-.3-.1-.3.1.2 1.4.8 2.9 1.7 4.1-.2-.1-.5-.2-.6-.3-.3-.2-.8-.4-1.3-.6-.7-1.5-1.4-3-1.8-4.7-.1-.3-.5-.2-.4.1.2 1.4.6 2.9 1.3 4.1-.3-.1-.7-.3-1-.4-.8-1.6-1.6-3-1.9-4.9 0-.2-.4-.2-.4.1.2 1.5.6 3.2 1.4 4.5-.3-.1-.6-.2-.9-.4-.4-.8-.8-1.5-1.1-2.2-.4-1.1-.7-2.2-.8-3.3 0-.3-.5-.2-.5.1.2 1.6.6 3.6 1.5 5.1l-1.5-.6c-.3-.7-.7-1.3-1-2-.4-.9-.7-1.9-.9-2.9-.1-.3-.5-.2-.4.1.3 1.4.7 3.2 1.6 4.5-.2-.1-.4-.1-.5-.2-.5-.2-1-.4-1.6-.6-.9-1.5-1.5-3-1.8-4.8 0-.2-.4-.2-.4.1 0 1.5.5 3.1 1.3 4.4-.7-.3-1.4-.6-2.1-.8-.8-1.7-1.5-3.4-1.7-5.3 0-.3-.4-.3-.4 0 .1 1.7.5 3.5 1.3 5-.4-.2-.8-.3-1.2-.5-.5-.8-1-1.5-1.4-2.4-.5-1.2-.8-2.5-.9-3.8 0-.3-.4-.3-.4 0 .1 1.9.6 4.1 1.7 5.8-.6-.3-1.3-.5-1.9-.8-1.2-2.1-2.1-4-2.2-6.6 0-.3-.4-.3-.4 0 0 2.1.5 4.4 1.6 6.1-.5-.2-1.1-.5-1.6-.7-1.3-2.3-2.1-4.5-2-7.2 0-.3-.4-.3-.4 0-.2 2.3.3 4.8 1.6 6.8-.3-.2-.7-.3-1-.5-1.3-2.7-2.2-5.2-2.2-8.2 0-.3-.4-.3-.4 0-.1 2.7.5 5.6 1.9 7.9-.7-.4-1.3-.7-1.9-1-1.6-2.4-2.2-4.8-2-7.9v-.1c.8-1.9 1.1-2.7 1.9-4.7zm-3.3 5.3c-.3 2.1.2 4.4 1.3 6.3-.3-.2-.6-.4-.8-.6-.6-.7-1.5-3.7-.5-5.7zM33.2 183c.3.9.8 2.5 1.4 4.6-.7-.3-1.5-.5-2.1-.9-.7-.4-1.3-1-1.8-1.6.5-.7 1.4-1.4 2.5-2.1zm-2.8 2.5c1.1 1.3 2.7 2.5 4.4 2.6.2.8.5 1.7.7 2.7l-.1-.1c-2.4-.9-4.4-1.8-6.2-3.4l1.2-1.8zm-6.2 27.4c3.5 2.2 7.7 4.1 11.8 4.8H24.9c-.3-1.6-.5-3.2-.7-4.8zm12.9 4.8c0-.1 0-.2-.1-.3-4.5-1.5-8.6-2.9-12.8-5.1-.1-.9-.1-1.9-.2-2.8 4.6 2.7 10 5.1 15.2 6.1.2 0 .3-.2.1-.3-5.1-2.2-10.2-4.2-15.3-6.5v-2.9c3.5 2.5 7.6 4.5 11.9 5.4.3.1.4-.4.1-.5-4.2-1.6-8.2-3.2-12-5.5 0-1.2.1-2.3.3-3.4 2.9 1.7 5.9 3.1 9.1 4 .3.1.4-.4.1-.5-3.1-1.3-6.2-2.6-9.2-4.1.1-.9.3-1.8.4-2.6 3 2.4 6.6 4.4 10.4 5 .2 0 .3-.2.1-.3-3.7-1.5-7.1-3.1-10.4-5.2l.6-2.4c2.8 1.9 5.8 3.8 9 4.7.2.1.3-.2.1-.3-3-1.7-6-3.1-8.9-4.9.3-.9.5-1.7.9-2.5 2.4 1.8 5.3 3.1 8.3 3.6.3 0 .4-.3.1-.4-2.9-1-5.6-2.2-8.2-3.8.2-.6.5-1.2.8-1.8 2.2 2 4.9 3.6 7.8 3.9.2 0 .2-.2 0-.3-2.8-1.1-5.3-2.2-7.6-4.1.4-.7.7-1.4 1.1-2.1 1.7 1.8 4.1 3.1 6.5 3.3.1 0 .1 0 .2-.1 1.4 5.9 3.1 14.8 4.1 26.7h-2.5zm4.5 0C39.9 196.6 36 184.9 35 182c2.2-1.2 4.9-2.3 7-2.9 3.5-1 6.7-2.9 8.1-3.7 3.3 2.5 11.8 5.9 18.6 8.6 3.8 1.5 7.2 2.8 8.6 3.6 2.4 1.3 10.3 2.2 17.6 2.6.2 1.5.4 2.9.7 3.8.7 1.9.5 3.3-.2 7.5l-.3 1.8c-.3 1.9-.7 3.4-1.1 4.8-.7 2.6-1.3 4.6-.2 6.8.2.4.5.6.9.6.1 0 .3 0 .4-.1.5-.2.7-.8.5-1.3-.8-1.6-.3-3 .3-5.4.4-1.3.8-3 1.2-5l.3-1.8c.7-4.3 1-6.1.1-8.5-.2-.6-.4-1.8-.6-3 2.3.1 4.5.2 6.4.2 0 .5-.1 1.1-.1 1.7-.1.7-.1 1.5-.2 2.4-.2 4.4.8 10 .9 10.9l-.2 9c0 .6.4 1 1 1 .5 0 1-.4 1-1l.2-9.1v-.2c0-.1-1.1-6-.9-10.5 0-.9.1-1.7.2-2.4s.1-1.3.1-1.9c1.5 0 2.5-.1 2.9-.3.4-.1 1.5-.4 3-.9 2.4-.7 5.7-1.6 9.2-2.7.1.1.3.1.4 0l.1-.1c6.8-2.1 14.4-4.6 17.7-6.8 4.4-2.9 5.9-5.5 6.4-7 3 1 8.4 2.9 9.8 3.8 1.6 1 9.1 6.4 11.1 7.8-.6 3.2-3.3 18.3-2.9 33.6l-121.4-.2zm123.3-1.3c.9.5 1.8.9 2.8 1.3H165c0-.4 0-.9-.1-1.3zm4.4 1.3c-1.4-.7-2.9-1.4-4.4-1.9v-3.1c2.8 2 6 3.5 9.3 4 .3 0 .4-.4.1-.4-3.4-1.1-6.5-2.3-9.4-4.2 0-1.1.1-2.1.1-3.2 2.6 1.2 5.3 2.4 8 3.2.2.1.4-.3.2-.4-2.6-1.3-5.4-2.4-8.1-3.4.1-1.1.1-2.1.2-3.1 2.3 1.5 4.8 2.8 7.4 3.6.2.1.4-.3.2-.4-2.6-1.2-5.1-2.3-7.6-3.8.1-.9.1-1.8.2-2.7 1.8 1.7 4.7 2.7 7.1 2.8.2 0 .3-.3.1-.4-1.4-.4-2.8-.8-4.2-1.4-1-.5-1.9-1.1-2.9-1.7.1-.9.2-1.7.2-2.6 2.1 1.2 4.2 2.5 6.4 3.3.2.1.3-.2.1-.3-2-1.4-4.3-2.4-6.5-3.4.1-1.1.2-2.1.4-3 1.6 1.1 3.2 2.2 4.9 3.1.2.1.3-.1.1-.2-1.6-1.2-3.3-2.3-5-3.2.3-2.3.6-4.3.8-6 1 .9 2 1.8 3.1 2.5.2.1.4-.1.2-.3-.9-1-2.1-1.9-3.2-2.7.2-1.4.4-2.5.6-3.2 1.4.7 4.1 2.4 6 6.6 2.5 5.4 2.8 21.9 2.9 26.1l-7.3-.2zm-2.3-25.9c-.3-.1-.4.2-.2.4 1.2.9 2.5 1.9 3.8 2.4.2.1.5-.2.3-.4-1.2-1-2.6-1.8-3.9-2.4zm-87.4-12.2c-.1-.8-.4-1.6-.6-2.5-.2-1-.2-1.9-.1-2.9 0-.3-.4-.3-.4 0-.2 1.7-.1 4 .8 5.5.1.2.3.1.3-.1zm1.9.9c.1-1.6-.3-3.4-.5-5 0-.3-.4-.3-.4 0 .1 1.7.1 3.5.5 5.1.1.2.4.1.4-.1zm1.2.1c.1-1.3-.3-2.7-.5-4.1 0-.2-.3-.1-.3.1.1 1.3.1 2.8.5 4.1 0 .2.3.1.3-.1zm2 1c-.2-1.5-.8-2.8-1-4.3 0-.3-.4-.3-.4 0 .1 1.4.3 3.2 1.1 4.4.1.2.3.1.3-.1zm2.1.2c.1.1.2-.1.1-.2-.3-.3-.6-.6-.8-1-.2-.4-.4-.8-.4-1.2 0-.3-.5-.2-.4.1 0 .9.5 2 1.5 2.3zm2.4.7c.1.1.3 0 .3-.2-.4-.9-1.1-1.8-1.7-2.6-.2-.2-.6 0-.4.2.6.9 1.1 1.8 1.8 2.6zm19 .3c.2-.5.2-1.2.2-1.8 0-.2-.4-.2-.4 0-.1.6-.3 1.2-.1 1.8.1.1.3.1.3 0zm1.3-.4c.2-.4.2-.8.3-1.2.1-.5.2-.9.3-1.4.1-.3-.3-.4-.4-.1l-.3 1.5c-.1.4-.2.8-.1 1.2-.1.1.1.2.2 0z" fill="#000000" stroke-width="none" opacity="1"></path></g><g id="svga-group-head" transform="matrix(1,0,0,1,0,0)"><g id="svga-group-ears-left-move" transform="matrix(1,0,0,1,0,0)"><g id="svga-group-ears-left"><path id="SvgjsPath11749" d="M60.8 80.5c-.2-.3-3.3-4.3-5.9-6.7s-3.4-2.4-4.6-.9c-1.3 1.5-2.9 9.1-2.5 12.4.4 3.4 3.6 8.7 5.2 11.7 1.7 3 3.3 6.7 5.1 6.3 1.9-.4 4.4-4.6 5.7-7.7 1.2-3.1.6-10.9-3-15.1z" fill="#ffffff" stroke-width="none" opacity="1"></path><path id="SvgjsPath11750" d="M52.9 98.9c-.3-.5-.5-1-.8-1.4l-.6-1c-1.8-3.1-4.4-7.8-4.8-11-.4-3.5 1.2-11.4 2.7-13.2.6-.7 1.2-1.3 2.2-1.4 1.2-.1 2.3.7 3.9 2.2 1.6 1.4 3.5 3.6 5.8 6.5l.2.3c3.9 4.6 4.5 12.8 3.2 16.1-1.1 3-3.9 7.8-6.4 8.3h-.5c-2 .1-3.4-2.6-4.9-5.4zm7.2-17.8s-.1-.1-.2-.3c-2.2-2.8-4.1-5-5.6-6.3-1.2-1.1-2.1-1.7-2.4-1.7-.2 0-.4.2-.8.7-1 1.2-2.6 8.4-2.3 11.7.3 2.8 2.8 7.3 4.5 10.3l.6 1c.3.5.5 1 .8 1.4.9 1.7 2.5 4.6 3.3 4.4 1.2-.2 3.6-3.7 4.9-7.1 1.1-2.8.4-10.2-2.8-14.1z" fill="#000000" stroke-width="none" opacity="1"></path><path id="SvgjsPath11751" d="M50 87c-.3-2.3-.5-7.8.8-9.6 2.2-2.9 6 6.4 6.9 9.3 0 .1.1.2.1.3.2.3-.1.7-.4.6-.4-.2-.9-.6-1.3-.8-1.1-.5-1.6.5-1.3 1.8.4 1.8 1.4 2.9 2.2 4.3.1.2 0 .4-.2.3-1.6-.9-3.5-4.5-3.1-6.6.3-2 1.9-1.8 3.1-.8-.7-1.7-1.5-3.3-2.5-4.8-.6-.9-1.2-2-2.2-2.2-1.2-.2-1 .3-1.2 1.8-.8 4.8-.3 10.4 2.5 14.5.1.1 0 .2-.1.1-1.7-2.3-2.9-4.9-3.3-8.2z" fill="#000000" stroke-width="none" opacity="1"></path></g></g><g id="svga-group-ears-right-move" transform="matrix(1,0,0,1,0,0)"><g id="svga-group-ears-right"><path id="SvgjsPath11752" d="M139.2 80.5c.2-.3 3.3-4.3 5.9-6.7 2.6-2.4 3.4-2.4 4.6-.9s2.9 9.1 2.5 12.4c-.4 3.4-3.6 8.7-5.2 11.7-1.7 3-3.3 6.7-5.1 6.3s-4.4-4.6-5.7-7.7c-1.2-3.1-.6-10.9 3-15.1z" fill="#ffffff" stroke-width="none" opacity="1"></path><path id="SvgjsPath11753" d="M142.1 104.4h-.5c-2.5-.5-5.2-5.4-6.4-8.3-1.3-3.4-.7-11.5 3.2-16.1l.2-.3c2.3-2.9 4.2-5.1 5.8-6.5 1.6-1.4 2.7-2.2 3.9-2.2 1 .1 1.6.7 2.2 1.4 1.5 1.8 3.1 9.7 2.7 13.2-.4 3.2-3 7.9-4.8 11l-.6 1c-.3.5-.5.9-.8 1.4-1.4 2.7-2.8 5.4-4.9 5.4zm-2.2-23.3c-3.2 3.9-3.9 11.2-2.8 14.1 1.3 3.4 3.7 6.9 4.9 7.1.8.2 2.4-2.7 3.3-4.4.3-.5.5-1 .8-1.4l.6-1c1.7-3 4.2-7.5 4.5-10.3.4-3.3-1.3-10.5-2.3-11.7-.4-.4-.6-.7-.8-.7-.3 0-1.2.5-2.4 1.7-1.5 1.4-3.3 3.5-5.6 6.3 0 .2-.1.3-.2.3z" fill="#000000" stroke-width="none" opacity="1"></path><path id="SvgjsPath11754" d="M150 87c.3-2.3.5-7.8-.8-9.6-2.2-2.9-6 6.4-6.9 9.3 0 .1-.1.2-.1.3-.2.3.1.7.4.6.4-.2.9-.6 1.3-.8 1.1-.5 1.6.5 1.3 1.8-.4 1.8-1.4 2.9-2.2 4.3-.1.2 0 .4.2.3 1.6-.9 3.5-4.5 3.1-6.6-.3-2-1.9-1.8-3.1-.8.7-1.7 1.5-3.3 2.5-4.8.6-.9 1.2-2 2.2-2.2 1.2-.2 1 .3 1.2 1.8.8 4.8.3 10.4-2.5 14.5-.1.1 0 .2.1.1 1.7-2.3 2.9-4.9 3.3-8.2z" fill="#000000" stroke-width="none" opacity="1"></path></g></g><g id="svga-group-faceshape-wrap"><g id="svga-group-faceshape-single"><path id="SvgjsPath11827" d="M142.4 53.6c-2.3-11.4-15.1-28.8-42.4-28.8S63.6 38.2 59.6 48.1c-2.5 6.2-3.2 15.2-3.4 19.7 0 0 .5 33.6 2.2 41.1 1.8 7.4 11.2 32.6 35.6 33.9 21.8 1.1 35.2-11.4 41.9-27 6.7-15.6 7.8-48 7.8-48 .1-3.2-.2-8.9-1.3-14.2z" fill="#ffffff" stroke-width="none" opacity="1"></path><path id="SvgjsPath11828" d="M96.8 144c-.9 0-1.9 0-2.8-.1-10.8-.6-19.9-5.6-27.1-15.1-5.2-6.8-8.4-14.9-9.5-19.7-1.8-7.5-2.2-39.9-2.3-41.3.2-4.8.9-13.8 3.4-20.1 6.6-16.2 20.1-24 41.5-24 12.3 0 23.2 3.6 31.3 10.4 6.3 5.2 10.9 12.5 12.2 19.3 1.1 5.5 1.3 11.4 1.4 14.4 0 1.3-1.2 32.8-7.9 48.4-4.5 10.6-15.7 27.8-40.2 27.8zM57.3 67.9c0 1.2.5 33.7 2.2 40.8 1.1 4.6 4.1 12.3 9.1 18.8 6.8 8.9 15.3 13.7 25.4 14.2 25.1 1.3 36.4-15.9 40.8-26.3 6.5-15 7.7-46.4 7.7-47.5 0-3-.3-8.7-1.4-14-1.3-6.4-5.6-13.1-11.5-18-7.7-6.5-18-9.9-29.9-9.9-20.3 0-33.2 7.4-39.4 22.6-2.1 5.9-2.8 14.6-3 19.3z" fill="#000000" stroke-width="none" opacity="1"></path></g></g><g id="svga-group-mouth-single-move" transform="matrix(1,0,0,1,0,2)"><g id="svga-group-mouth-single"><path id="SvgjsPath11912" d="M114.77 119.83c-1.13.44-2.28.54-3.44.5-1.86-.99-3.84-2.01-5.96-2.23-2.25-.23-4.37 1.18-6.55.6-1.62-.43-2.83-1.07-4.53-.62-2.55.67-4.74 2.91-7.53 1.8-.08-.03-.14-.02-.19.01-.21-.08-.41-.16-.62-.26-.33-.16-.61.33-.29.49.82.41 1.64.6 2.47.68.01.01 0 .02.02.03 6.71 6.02 16.81 5.73 23.65.07 1.04.01 2.08-.11 3.11-.52.35-.13.2-.68-.14-.55zm-16.76-.81c1.63.54 2.65.39 4.28-.03 2.77-.72 5.16.06 7.55 1.23-2.67-.3-5.34-.96-7.92.34-1.04.52-1.2.66-2.56.65-1.39-.01-1.47-.19-2.53-.68-.69-.31-1.37-.49-2.12-.57-1.26-.13-2.5.04-3.73.18 2.54-1.04 4.18-2.06 7.03-1.12zm-8.95 1.81c1.16 0 2.34-.18 3.57-.28 1.98-.16 3.32.32 5.07 1.13.7.32 1.27.57 2.06.48 1.3-.16 2.36-1.22 3.58-1.61 1.62-.53 3.37-.25 5.01-.01.87.13 1.73.26 2.58.32-6.42 4.96-15.56 5.2-21.87-.03z" fill="#000000" stroke-width="none" opacity="1"></path></g></g><g id="svga-group-eyes-left-move" transform="matrix(1,0,0,1,0,0)"><g id="svga-group-eyes-left"><g id="svga-group-eyesback-left"></g><g id="svga-group-eyesiriswrapper-left"><g id="svga-group-eyesiriscontrol-left" transform="matrix(1,0,0,1,0,0)"><g id="svga-group-eyesiris-left"><path id="SvgjsPath11864" d="M83.6 85.1c-1.1-2.1-3.5-2.9-5.7-2.2-2.4.8-4.2 3.3-3.3 5.9.5 1.4 1.6 2.6 3.1 2.9.5.1 1 .1 1.6.1.6.1 1.2 0 1.8-.2 2.6-.9 3.8-4 2.5-6.5z" fill="#ffffff" stroke-width="none" opacity="1"></path><path id="SvgjsPath11865" d="M81.8 86.2c0-.1 0-.1-.1-.2-.6-1.2-2.2-1.7-3.4-1.1.3.2.5.6.6.8.2.4.6 1.1.1 1.3-.4.2-1.1 0-1.4-.2-.2-.1-.4-.3-.5-.5 0 .1-.1.1-.1.2-.1.2-.1.5-.1.7-.2.7 0 1.5.6 2.1.3.2.6.4.9.4.6.3 1.3.4 2 .1-.1-.1-.2-.3-.2-.4 0-.3.2-.6.5-.7.3-.1.6 0 .8.2.3-.3.5-.8.6-1.2.2-.5 0-1.1-.3-1.5zM79.6 92h-.4c-.5 0-1.1 0-1.6-.1-1.4-.3-2.7-1.5-3.2-3-.9-2.7 1-5.2 3.4-6.1 2.3-.8 4.8.1 5.9 2.2.6 1.2.7 2.7.2 4-.5 1.3-1.6 2.3-2.9 2.8-.4.1-.9.2-1.4.2zm-.4-.3c.6.1 1.2 0 1.8-.2 1.2-.4 2.2-1.4 2.7-2.6.5-1.2.4-2.6-.2-3.7-1-1.9-3.4-2.8-5.5-2.1-2.3.8-4.1 3.2-3.2 5.7.5 1.4 1.7 2.6 3 2.8.4.1.9.1 1.4.1z" fill="#000000" stroke-width="none" opacity="1"></path></g></g></g><g id="svga-group-eyesfront-left"><path id="SvgjsPath11793" d="M79 72.1c-8.2 0-14.8 6.6-14.8 14.8s6.6 14.8 14.8 14.8 14.8-6.6 14.8-14.8c0-8.1-6.6-14.8-14.8-14.8zM86.6 91c-1 .7-4.1 2.3-8.1 2.2s-11-2.6-11.7-3.5c-.7-1 2-3.2 3.2-4 1.1-.8 4.2-3.3 7.8-3.4 3.6-.1 6.2.8 8.4 2.2 2.2 1.3 3.7 3.7 3.7 3.7s-2.4 2.2-3.3 2.8z" fill="#ffffff" stroke-width="none" opacity="1"></path><path id="SvgjsPath11794" d="M79.4 93.7h.3c5.7-.1 9.7-4.3 9.8-4.5.2-.2.2-.5 0-.7s-.5-.2-.7 0c0 0-3.9 4.1-9.2 4.2-5.3.1-11.5-2.6-12.5-3.4.2-1 4.8-5.5 8.2-6.2 3.4-.7 10.8-.5 14.4 5.8.1.2.4.3.7.2.2-.1.3-.4.2-.7-3.9-6.7-11.8-7-15.4-6.2-3.4.7-8.4 5.1-8.9 6.8-.1.5 0 .8.2.9 1 1 7.4 3.8 12.9 3.8z" fill="#000000" stroke-width="none" opacity="1"></path></g></g></g><g id="svga-group-eyes-right-move" transform="matrix(1,0,0,1,0,0)"><g id="svga-group-eyes-right"><g id="svga-group-eyesback-right"></g><g id="svga-group-eyesiriswrapper-right"><g id="svga-group-eyesiriscontrol-right" transform="matrix(1,0,0,1,0,0)"><g id="svga-group-eyesiris-right"><path id="SvgjsPath11866" d="M125.6 85.1c-1.1-2.1-3.5-2.9-5.7-2.2-2.4.8-4.2 3.3-3.3 5.9.5 1.4 1.6 2.6 3.1 2.9.5.1 1 .1 1.6.1.6.1 1.2 0 1.8-.2 2.5-.9 3.7-4 2.5-6.5z" fill="#ffffff" stroke-width="none" opacity="1"></path><path id="SvgjsPath11867" d="M123.8 86.2c0-.1 0-.1-.1-.2-.6-1.2-2.2-1.7-3.4-1.1.3.2.5.6.6.8.2.4.6 1.1.1 1.3-.4.2-1.1 0-1.4-.2-.2-.1-.4-.3-.5-.5 0 .1-.1.1-.1.2-.1.2-.1.5-.1.7-.2.7 0 1.5.6 2.1.3.2.6.4.9.4.6.3 1.3.4 2 .1-.1-.1-.2-.3-.2-.4 0-.3.2-.6.5-.7.3-.1.6 0 .8.2.3-.3.5-.8.6-1.2.1-.5 0-1.1-.3-1.5zm-2.2 5.8h-.4c-.5 0-1.1 0-1.6-.1-1.4-.3-2.7-1.5-3.2-3-.9-2.7 1-5.2 3.4-6.1 2.3-.8 4.8.1 5.9 2.2.6 1.2.7 2.7.2 4-.5 1.3-1.6 2.3-2.9 2.8-.4.1-.9.2-1.4.2zm-.4-.3c.6.1 1.2 0 1.8-.2 1.2-.4 2.2-1.4 2.7-2.6.5-1.2.4-2.6-.2-3.7-1-1.9-3.4-2.8-5.5-2.1-2.3.8-4.1 3.2-3.2 5.7.5 1.4 1.7 2.6 3 2.8.3.1.8.1 1.4.1z" fill="#000000" stroke-width="none" opacity="1"></path></g></g></g><g id="svga-group-eyesfront-right"><path id="SvgjsPath11795" d="M121 72.1c-8.2 0-14.8 6.6-14.8 14.8s6.6 14.8 14.8 14.8 14.8-6.6 14.8-14.8c0-8.1-6.6-14.8-14.8-14.8zm-.1 21.1c-3.9.1-7.1-1.5-8.1-2.2s-3.4-2.8-3.4-2.8 1.5-2.4 3.7-3.7c2.2-1.3 4.9-2.2 8.4-2.2 3.6.1 6.6 2.6 7.8 3.4 1.1.8 3.9 3.1 3.2 4-.7 1-7.7 3.4-11.6 3.5z" fill="#ffffff" stroke-width="none" opacity="1"></path><path id="SvgjsPath11798" d="M120 93.7h-.3c-5.7-.1-9.7-4.3-9.8-4.5-.2-.2-.2-.5 0-.7s.5-.2.7 0c0 0 3.9 4.1 9.2 4.2 5.3.1 11.5-2.6 12.5-3.4-.2-1-4.8-5.5-8.2-6.2-3.4-.7-10.8-.5-14.4 5.8-.1.2-.4.3-.7.2-.2-.1-.3-.4-.2-.7 3.9-6.7 11.8-7 15.4-6.2 3.4.7 8.4 5.1 8.9 6.8.1.5 0 .8-.2.9-1 1-7.4 3.8-12.9 3.8z" fill="#000000" stroke-width="none" opacity="1"></path></g></g></g><g id="svga-group-facehighlight-single"></g><g id="svga-group-eyebrows-left-move" transform="matrix(1,0,0,1,0,0)"><g id="svga-group-eyebrows-left-rotate" transform="matrix(0.9978589415550232,-0.06540313363075256,0.06540313363075256,0.9978589415550232,-4.612508296966553,5.222983360290527)"><g id="svga-group-eyebrows-left"><path id="SvgjsPath11713" d="M64.92 73.74s20.93-3.78 23.62-3.09c2.69.69 1.03 4.86.09 4.91-.93.05-23.71-1.82-23.71-1.82z" fill="#ffffff" stroke-width="none" opacity="1"></path><path id="SvgjsPath11714" d="M64.51 73.76c.01.22.17.41.38.42.91.08 22.14 1.82 23.71 1.82h.06c.84-.05 1.64-1.67 1.75-2.99.12-1.46-.52-2.48-1.77-2.8-2.74-.7-22.93 2.93-23.79 3.09a.44.44 0 0 0-.34.46zm8.49.19-2.03-.81c.57-.09 1.15-.19 1.74-.28.02.02.03.05.05.07l2.08 1.17-1.84-.15zm3.22.26-2.64-1.49c.74-.12 1.49-.24 2.24-.35l1.53 1.93-1.13-.09zm1.9.15-1.66-2.09 1.43-.21.95 2.36-.72-.06zm1.33.1-1-2.49c.52-.08 1.03-.15 1.54-.22l.05 2.75c-.19-.01-.39-.02-.59-.04zm3.49.27.82-3.45c.55-.06 1.06-.11 1.54-.15l-1.88 3.64c-.15-.01-.31-.03-.48-.04zm3.82-3.71-1.41 3.89c-.41-.03-.85-.06-1.32-.1l1.93-3.74c.29-.02.55-.04.8-.05zm-4.37 3.67c-.21-.02-.42-.03-.64-.05l.47-3.17.97-.12-.8 3.34zm-1.19-.09c-.2-.02-.41-.03-.62-.05l-.05-2.87c.38-.05.76-.1 1.12-.15l-.45 3.07zm7.61-3.37-2.12 3.78c-.24-.02-.5-.03-.77-.05l1.43-3.95h.16c.42 0 .73.02.93.07.15.03.26.09.37.15zm-1.16 3.84c-.11-.01-.22-.01-.34-.02l1.94-3.47c.15.18.25.41.3.68l-1.88 2.71c-.02.03-.01.07-.02.1zm.61.03 1.29-1.86c-.17.99-.72 1.82-.94 1.87-.05.01-.17 0-.35-.01zm-19.87-1.52c.5-.08 1.02-.17 1.55-.26.03.03.04.06.08.08l1 .4c-.89-.08-1.77-.15-2.63-.22z" fill="#000000" stroke-width="none" opacity="1"></path></g></g></g><g id="svga-group-eyebrows-right-move" transform="matrix(1,0,0,1,0,0)"><g id="svga-group-eyebrows-right-rotate" transform="matrix(0.9914448857307434,-0.13052619993686676,0.13052619993686676,0.9914448857307434,-8.487987518310547,16.618871688842773)"><g id="svga-group-eyebrows-right"><path id="SvgjsPath11715" d="M135.08 73.74s-20.93-3.78-23.62-3.09c-2.69.69-1.03 4.86-.09 4.91.93.05 23.71-1.82 23.71-1.82z" fill="#ffffff" stroke-width="none" opacity="1"></path><path id="SvgjsPath11716" d="M135.15 73.3c-.86-.16-21.05-3.79-23.79-3.09-1.24.32-1.89 1.34-1.77 2.8.11 1.31.91 2.94 1.75 2.99h.06c1.56 0 22.79-1.74 23.71-1.82.21-.02.37-.2.38-.42a.44.44 0 0 0-.34-.46zm-9.99.8 2.08-1.17c.03-.02.03-.05.05-.07.59.1 1.17.19 1.74.28l-2.03.81-1.84.15zm-2.51.2 1.53-1.93c.75.12 1.5.23 2.24.35l-2.64 1.49-1.13.09zm-1.49.11.95-2.36 1.43.21-1.66 2.09c-.24.03-.48.05-.72.06zm-1.2.1.05-2.75c.5.07 1.02.14 1.54.22l-1 2.49c-.2.01-.4.02-.59.04zm-3.39.26-1.88-3.64c.48.04.99.09 1.54.15l.82 3.45c-.16.01-.32.03-.48.04zm-2.53-3.7 1.93 3.74c-.47.03-.91.07-1.32.1l-1.41-3.89c.25.01.51.03.8.05zm2.77.28c.31.04.64.08.97.12l.47 3.17c-.22.02-.43.03-.64.05l-.8-3.34zm1.53.18 1.12.15-.05 2.87c-.21.02-.41.03-.62.05l-.45-3.07zm-6.79-.45c.2-.05.52-.07.93-.07h.16l1.43 3.95c-.28.02-.53.04-.77.05l-2.12-3.78c.12-.06.23-.12.37-.15zm.78 3.89-1.88-2.71c.05-.27.15-.5.3-.68l1.94 3.47c-.12.01-.23.02-.34.02-.01-.03 0-.07-.02-.1zm-.94.14c-.22-.05-.77-.88-.94-1.87l1.29 1.86c-.18.01-.3.02-.35.01zm17.59-1.32 1-.4c.04-.01.05-.05.08-.08.53.09 1.06.18 1.55.26-.86.08-1.74.15-2.63.22z" fill="#000000" stroke-width="none" opacity="1"></path></g></g></g><g id="svga-group-beardwrap"><g id="svga-group-beard-single-move" transform="matrix(1,0,0,1,0,-2)"><g id="svga-group-beard-single" transform="matrix(0.9499998000000001,0,0,0.9499998000000001,4.974390281697836,6.007488820203392)"><path id="SvgjsPath11703" d="M96.5 132.5s.3 1.4-.3 3.1c-.6 1.6-7.2.1-8.3-1-1.1-1.1-11.3-9.3-14.7-15.1-3.3-5.8-7.8-11.2-14.5-31.7 0 0-2.5-3-4.1 2-1.6 5-3.2 10.1-4.1 12.8-1 2.7-2.2 6.8-.8 8.8 1.4 1.9 17.8 26.3 31.6 42 0 0 11.9 6.2 37.7-.4 1.1-.3 14.6-17.9 19.9-25.4 5.3-7.4 10.4-14.1 10.9-16.4.5-2.3-3.9-24.2-5.3-26-1.4-1.8-3.2-.8-4-.1-.8.7-1.2 9.1-7.9 23.7-6.9 15-20.9 25.4-22.9 27.1-2 1.6-9.1 1.7-9.1-1.1v-2.2l-4.1-.1z" fill="#ffffff" stroke-width="none" opacity="1"></path><path id="SvgjsPath11704" d="M145 84.9c-.7-.9-1.5-1.2-2-1.2-1.1-.1-2.1.5-2.7 1.1-.3.3-.5.9-.9 2.9-.8 3.5-2.4 10.8-7.1 21-1.9 4-4.3 7.9-7.4 11.8-.1 0-.2.1-.2.3-3.9 4.9-8.7 9.7-14.5 14.3-.3.2-.5.4-.6.5-1.3 1.1-5.2 1.3-7.1.5-.7-.3-1-.7-1-1.2v-2.7l-5.5-.1.1.7s.2 1.3-.3 2.8c0 .1-.2.2-.5.2-1.8.4-6.1-.8-6.9-1.5-.2-.2-.7-.6-1.3-1.1-3.2-2.7-10.5-9.1-13.3-13.8-.5-.9-1.1-1.8-1.7-2.8-3.2-5.2-7.2-11.7-12.7-28.8l-.1-.2c0-.1-1.1-1.3-2.5-1.1-1.1.2-2 1.3-2.7 3.2-.6 1.8-1.2 3.7-1.7 5.4-1 3-1.8 5.7-2.4 7.4-1.7 4.6-1.9 7.6-.7 9.2.2.3.7.9 1.3 1.9 4.5 6.5 18.3 26.6 30.3 40.2l.2.1c.1.1 1.2.6 3.4 1.2.1.4.5.4.7.2 2.8.7 7 1.4 12.7 1.3 5.6-.1 12.7-.9 21.3-3.1 1.6-.4 17.3-21.4 20.2-25.6 1.1-1.5 2.2-3 3.2-4.5 4.1-5.7 7.4-10.2 7.8-12.2.5-2.4-4-24.4-5.4-26.3zm4.3 26.2c0 .1-.1.2-.1.4-.2-1.1-.5-2.2-.9-3.3-.2-.5-.9-.3-.8.2.5 1.3.9 2.6 1.1 4 0 .1.1.2.1.2-.2.3-.4.7-.6 1-.1-.2-.1-.5-.2-.7-.1-.5-.9-.3-.8.2.1.5.2.9.4 1.4-.1.2-.3.4-.4.6-.1-.5-.3-.9-.4-1.4-.1-.5-.9-.3-.8.2.2.7.4 1.3.6 2-.2.3-.4.5-.6.8-.2-.8-.4-1.5-.6-2.3-.1-.5-.9-.3-.8.2.2.9.5 1.7.8 2.6 0 .1.1.2.2.2-.6.9-1.4 1.9-2.1 2.9-.1-.6-.4-1.2-.7-1.7-.3-.4-1 0-.7.4.4.6.7 1.3.8 2.1v.1c-.2.4-.5.7-.8 1.1-.2-.8-.5-1.7-.8-2.5-.1-.5-.9-.3-.8.2.3 1 .6 2.1.9 3.1-.3.4-.5.8-.8 1.1-.2-1.1-.6-2.2-1-3.3-.2-.5-1-.3-.8.2.5 1.2.9 2.5 1.1 3.8 0 .1.1.1.1.2-.4.6-.9 1.2-1.3 1.8 0-.5-.1-1-.2-1.6-.1-.5-.9-.3-.8.2.3 1 .2 1.9-.1 2.9l-.6.9c0-.9 0-1.9-.2-2.8-.1-.5-.9-.3-.8.2.2 1.2.2 2.4.1 3.6 0 .1 0 .2.1.2-.2.2-.3.5-.5.7 0-1.6-.2-3.1-.7-4.6-.1-.5-.9-.3-.8.2.5 1.7.7 3.5.6 5.3v.1c-.4.5-.8 1-1.2 1.6 0-1.4-.3-2.8-.9-4.1-.2-.5-.9-.1-.7.4.7 1.4.9 3 .8 4.5 0 .1 0 .1.1.2-.2.3-.5.6-.7 1-.1-1.1-.2-2.2-.2-3.2 0-.5-.9-.5-.8 0 .1 1.2.2 2.5.3 3.7 0 .1.1.3.2.3-.2.3-.5.6-.7 1 0-.3-.1-.6-.1-.9 0-.5-.9-.5-.8 0 0 .5.1 1 .1 1.5 0 .1.1.2.1.3-.2.3-.5.6-.7.9 0-.5-.1-.9-.1-1.4-.1-.5-.9-.5-.8 0 0 .5.1.9.1 1.4 0 .3.3.4.6.4-.4.6-.9 1.1-1.3 1.7-.1-1.2-.1-2.4-.2-3.7 0-.5-.8-.5-.8 0 .1 1.5.1 2.9.2 4.4 0 .1 0 .1.1.2-.3.4-.6.7-.8 1.1-.1-.6-.1-1.3-.2-1.9-.1-.5-.9-.5-.8 0l.3 2.7c0 .1 0 .1.1.1-.4.6-.8 1.1-1.2 1.6 0-1-.1-1.9-.1-2.9 0-.5-.8-.5-.8 0 0 1 .1 2 .1 3.1 0 .2.2.4.4.4-.9 1.1-1.8 2.2-2.5 3.1.3-1 .4-2 .3-3-.1-.5-.9-.5-.8 0 .1 1.3-.1 2.5-.6 3.7-.1.2 0 .4.2.4-.3.4-.7.7-.9 1 .3-1.2.3-2.4.1-3.7-.1-.5-.9-.3-.8.2.3 1.4.2 2.9-.4 4.3-.4.1-.8.2-1.1.3.2-1.1.2-2.2 0-3.3-.1-.5-.9-.3-.8.2.2 1.1.1 2.2-.1 3.3-.8.2-1.6.4-2.3.5.3-.6.4-1.2.4-1.8 0-.5-.8-.5-.8 0 0 .6-.1 1.1-.4 1.6-.1.1-.1.3 0 .4-.3.1-.7.1-1 .2.2-.7.3-1.3.2-2-.1-.5-.9-.5-.8 0 .1.8-.1 1.5-.3 2.2-.3.1-.7.1-1 .2.4-1.2.7-2.5.7-3.8 0-.5-.8-.5-.8 0-.1 1.4-.3 2.6-.8 3.9l-2.1.3c.2-.6.3-1.3.3-1.9 0-.5-.8-.5-.8 0 0 .7-.2 1.4-.4 2.1-.5.1-1 .1-1.4.2.4-1.4.6-2.8.5-4.2 0-.5-.9-.5-.8 0 .1 1.5-.1 2.9-.6 4.3-.8.1-1.6.1-2.4.2.3-1.4.5-2.8.8-4.2.1-.5-.7-.7-.8-.2-.3 1.5-.5 3-.8 4.5-.6 0-1.1.1-1.6.1.2-1.2.3-2.5.5-3.7.1-.5-.8-.5-.9 0-.2 1.2-.3 2.5-.5 3.8-1.9 0-3.7 0-5.3-.1 0-1 .1-2 .1-2.9 0-.5-.8-.5-.9 0 0 .9-.1 1.9-.1 2.9-.8-.1-1.5-.1-2.2-.2-.3-1.4-.3-2.8-.1-4.2.1-.5-.7-.8-.8-.2-.2 1.4-.2 2.8 0 4.2-1.5-.2-2.8-.5-3.8-.8-.1-1-.1-2.1.1-3.1.1-.5-.7-.7-.8-.2-.2 1-.2 2.1-.2 3.1-.6-.2-1.1-.3-1.4-.5.2-1.4.3-2.9.5-4.3.1-.5-.8-.5-.9 0-.2 1.3-.3 2.6-.4 4-.1 0-.2-.1-.2-.1-.4-.4-.8-.9-1.2-1.4 0-1.5.2-2.9.6-4.3v-.2c.1 0 .2-.1.2-.3.1-.7.3-1.4.4-2 .1-.5-.7-.7-.8-.2-.1.7-.3 1.4-.4 2v.2c-.1 0-.2.1-.3.3-.4 1.2-.6 2.3-.6 3.5l-.2-.2c.1-.7.2-1.5.3-2.2.1-.5-.8-.5-.9 0-.1.4-.1.9-.2 1.3-.1-.1-.2-.3-.3-.4-.3-1.9-.4-3.7-.1-5.6.1-.5-.8-.5-.9 0-.2 1.4-.2 2.9-.1 4.3-.4-.5-.8-.9-1.1-1.4.1-.1.1-.1.1-.3-.1-1 .1-2 .5-2.9.2-.5-.5-.9-.8-.4-.4.8-.7 1.7-.7 2.6-.4-.5-.9-1.1-1.3-1.6.2 0 .5-.1.5-.4.2-1 .3-2 .4-3 .1-.5-.8-.5-.9 0-.2 1-.3 1.9-.4 2.9-2.1-2.7-4.2-5.4-6.3-8.2.2 0 .5-.1.6-.4.1-1.1.2-2.1.6-3.1.2-.5-.7-.7-.8-.2a9.6 9.6 0 0 0-.6 3.3c-4.7-6.3-9-12.4-12.1-16.8.2-.9.3-1.8.5-2.8.1-.5-.8-.5-.9 0l-.3 1.8c-1.1-1.6-2-2.9-2.7-3.9-.3-.5-.6-.8-.8-1.2 0-.5.1-1 .2-1.4 0-.5-.8-.5-.9 0v.3c-.7-1.4-.3-4.1 1.1-7.9l.3-.9c.2.2.6.2.7-.2.5-1.5 1.4-2.9 2.5-4.1.4-.4-.2-1-.6-.6-.8.8-1.4 1.6-1.9 2.6.4-1.3.9-2.7 1.3-4.2v.2c0 .5.8.5.9 0 .1-1.1.4-2.2 1-3.2.2-.4-.4-.8-.7-.5l.3-.9c.1 0 .2-.1.3-.2.4-.8 1-1.5 1.6-2.2.4-.4-.2-.9-.6-.6l-.3.3c.4-.6.8-.8 1-.9.5-.1 1.1.4 1.3.6.1.4.2.7.3 1.1-1.2.7-2.2 1.7-2.6 3-.2.5.7.7.8.2.3-1 1-1.9 2-2.5.7 2 1.3 3.9 1.9 5.6-.3.4-.6.7-.9 1.1-.4.3.4.7.7.3.2-.2.3-.4.5-.6.2.4.3.8.5 1.2-.2-.1-.4 0-.5.1-.6.7-1.1 1.3-1.7 2-.3.4.4.8.7.4.6-.7 1.1-1.4 1.7-2 .2.6.4 1.1.6 1.7-.6.8-1 1.7-1.2 2.6-.1.5.7.7.8.2.2-.7.4-1.4.8-2 .9 2.2 1.7 4.1 2.5 5.8-.2-.1-.5 0-.6.2-.2.4-.4.8-.5 1.3-.2.5.6.7.8.2.2-.4.4-.8.5-1.2.6 1.2 1.1 2.3 1.7 3.4-.3.4-.7.8-1 1.1-.4.4.2 1 .6.6.3-.3.6-.6.8-.9.6 1.2 1.2 2.2 1.8 3.2-.1 0-.1.1-.2.2-.3.5-.5 1.1-.8 1.6-.2.5.5.9.7.4.2-.5.4-.9.7-1.4.4.7.8 1.3 1.2 1.9.1.2.2.3.3.4-.2.5-.4 1.1-.6 1.6-.2.5.6.7.8.2l.3-.9c.2.4.4.8.7 1.1-.1 0-.1.1-.2.2-.3.4-.6.8-.9 1.3-.3.4.4.9.7.4.3-.4.5-.8.8-1.1.4.6.8 1.3 1.4 1.9-.1 0-.1.1-.1.2-.2.7-.4 1.3-.5 2-.1.5.7.7.8.2.2-.5.3-1.1.4-1.6 1 1.2 2.1 2.4 3.2 3.5-.2.4-.4.8-.7 1.2-.3.5.5.9.7.4.2-.3.4-.7.5-1 1.2 1.2 2.3 2.3 3.5 3.3-.2.4-.3.8-.5 1.2-.2.5.6.7.8.2.1-.3.2-.5.3-.8 1.3 1.1 2.4 2.1 3.3 2.9.6.5 1.1.9 1.2 1.1.5.5 1.9 1.1 3.3 1.4-.1.1-.2.2-.2.4v1.4c0 .5.8.5.9 0v-1.4c0-.1 0-.1-.1-.2 1.5.3 3.1.5 4.1.2.9-.2 1.2-.6 1.3-1 .4-1.1.4-2 .4-2.7h.8c-.1.1-.1.2-.1.3.1.7.2 1.3.3 2 .1.5.9.3.8-.2-.1-.7-.2-1.3-.3-2h1.5v1.7c0 .6.2 1.4 1.3 1.9-.1.1-.2.2-.1.4.2.6.4 1.3.6 1.9.2.5 1 .3.8-.2-.2-.6-.4-1.1-.5-1.7 1.9.7 4.7.6 6.6-.1v.3c.4.7.7 1.5.8 2.4 0 .5.9.5.8 0-.1-1-.4-1.9-.9-2.8 0-.1-.1-.1-.2-.1.3-.1.6-.3.8-.5.2-.1.3-.3.6-.5 1.6-1.2 3-2.5 4.4-3.8l.6 2.4c.1.5.9.3.8-.2l-.6-2.4c0-.1-.1-.2-.2-.3.8-.7 1.6-1.5 2.4-2.2.2.7.4 1.5.7 2.2.2.5.9.3.8-.2-.2-.8-.5-1.6-.7-2.4 0-.1-.1-.1-.1-.2 2.2-2.1 4.1-4.3 5.9-6.4.1.6.1 1.1.1 1.7 0 .5.9.5.8 0-.1-.9-.2-1.7-.2-2.6.7-.8 1.3-1.7 1.9-2.5.2.9.4 1.7.7 2.6.1.5.9.3.8-.2-.2-.9-.5-1.9-.7-2.8 0-.1-.1-.2-.2-.2.3-.5.6-.9 1-1.4.3.8.6 1.7.9 2.6.2.5 1 .3.8-.2-.3-.9-.6-1.7-1-2.6-.1-.2-.2-.3-.4-.3.3-.4.5-.8.8-1.2.1.4.2.8.2 1.2.1.5.9.3.8-.2-.1-.7-.2-1.4-.4-2 .4-.7.9-1.5 1.2-2.2v.2c.5 1.1.9 2.3 1.4 3.4.2.5 1 .3.8-.2-.5-1.1-.9-2.3-1.4-3.4-.1-.3-.5-.3-.7-.1.4-.9.9-1.7 1.3-2.6.3-.6.5-1.1.8-1.7.1.2.1.5.2.8.1.5.9.3.8-.2-.1-.4-.2-.8-.4-1.2 0-.1-.1-.2-.2-.2 1-2.3 1.9-4.5 2.6-6.4.1.5.3.9.4 1.4.1.5.9.3.8-.2-.2-.6-.3-1.2-.5-1.8v-.3c-.1-.1-.1-.2-.1-.3v-.1c.3-.8.5-1.5.7-2.2.3.8.6 1.7.9 2.5.2.5.9.3.8-.2l-1.2-3.3c0-.1-.1-.1-.1-.1.3-.9.5-1.7.7-2.4.5 1.4.9 2.8 1.4 4.2.2.5.9.3.8-.2-.5-1.4-1-2.9-1.4-4.3-.1-.3-.4-.3-.6-.2.4-1.4.7-2.6.9-3.6.3.6.6 1.2 1 1.8.2.4.9.1.7-.4-.4-.8-.9-1.6-1.3-2.4 0-.1-.1-.1-.1-.1.1-.4.2-.8.2-1.1l1.2 2.1c.2.4.9.1.7-.4-.5-.8-.9-1.6-1.4-2.4l-.2-.2c0-.1 0-.1.1-.1.2-.2.5-.4.7-.5.1.1.1.3.2.4.2.4.9.1.7-.4-.1-.1-.1-.2-.1-.3h.4c.5.1.9.3 1.2.8.2.2.4.8.6 1.7-.3-.3-.6-.7-.9-1-.4-.3-.9.2-.6.5.9.9 1.6 2 2 3.2 0 .1.1.2.2.2.3 1.3.7 2.9 1 4.5-.2-.2-.3-.4-.5-.7-.3-.4-.9.1-.6.5.6.8 1.1 1.6 1.6 2.5.2 1.1.5 2.3.7 3.4-.5-1-1.1-2-2-2.9-.4-.4-.9.2-.6.5 1.1 1.2 1.9 2.5 2.4 4.1.1.3.3.3.5.2.2 1 .4 2 .5 2.9-.6-1.1-1.1-2.2-1.7-3.3-.2-.4-.9-.1-.7.4.8 1.6 1.6 3.1 2.4 4.7.1.1.1.2.2.2-.2 1.3-.1 2.7-.2 3.2zM51.6 104c-.6 1.2-1 2.5-1.3 3.8-.1.5.7.8.8.2.3-1.3.7-2.6 1.3-3.8.2-.5-.6-.7-.8-.2zm1.4 3.2c-.5 1.7-.8 3.5-1 5.2 0 .5.8.5.9 0 .1-1.7.4-3.4.9-5 .2-.5-.7-.7-.8-.2zm1.5 4.7c-.2.7-.4 1.5-.6 2.2-.1.5.7.7.8.2.2-.7.4-1.5.6-2.2.1-.5-.7-.7-.8-.2zm3 1.8c-.8 1.8-1.2 3.6-1.4 5.5 0 .5.8.5.9 0 .1-1.8.6-3.6 1.3-5.3.3-.4-.5-.7-.8-.2zm1.9 4.8c-.4.9-.6 1.9-.6 2.9 0 .5.9.5.9 0 0-.9.2-1.8.6-2.7.1-.4-.7-.6-.9-.2zm1.9 3c-.4.9-.6 1.9-.6 2.9 0 .5.9.5.9 0 0-.9.2-1.8.6-2.7.2-.5-.7-.7-.9-.2zm2.8 2.5c-.4 1.5-.8 3.1-1.2 4.6-.1.5.7.7.8.2.4-1.5.8-3.1 1.2-4.6.2-.5-.7-.7-.8-.2zm2.5 3.7c-.3 1.1-.6 2.1-1 3.2-.2.5.7.7.8.2.3-1.1.6-2.1 1-3.2.2-.5-.6-.7-.8-.2zm4.5 4.2c-.4 1.8-.7 3.6-1.1 5.4-.1.5.7.7.8.2.4-1.8.7-3.6 1.1-5.4.1-.5-.7-.8-.8-.2zm1.8 4.9c-.8 1.4-1 2.9-.7 4.4.1.5 1 .3.8-.2-.3-1.3-.1-2.6.6-3.8.3-.5-.4-.9-.7-.4zm-19-32.9c.1-1.3.5-2.6 1.3-3.7.3-.4-.4-.8-.7-.4-.9 1.2-1.3 2.6-1.5 4.1 0 .5.9.5.9 0zm1.8-1.8c-.4 1.3-.8 2.7-1.3 4-.2.5.7.7.8.2.4-1.3.8-2.7 1.3-4 .2-.5-.6-.8-.8-.2zm2.3 4.1c.2-.5-.5-.9-.7-.4-.8 1.6-1.3 3.2-1.5 4.9-.1.5.8.5.9 0 .1-1.5.5-3 1.3-4.5zm.8 3.2c-.6.9-1 1.9-1.2 3-.1.5.8.5.9 0 .1-.9.5-1.8 1-2.6.4-.4-.4-.8-.7-.4zm1.5 3.9c-.9 1.2-1.4 2.7-1.4 4.2 0 .5.9.5.9 0 0-1.4.4-2.6 1.2-3.8.4-.4-.3-.8-.7-.4zm1.8 3.4c-.4 1.1-.6 2.2-.6 3.4 0 .5.8.5.9 0 0-1.1.2-2.1.6-3.2.1-.5-.8-.7-.9-.2zm1.7 5.4c0-1.2.3-2.4.9-3.4.3-.5-.5-.9-.7-.4-.7 1.2-1 2.5-1.1 3.8 0 .5.9.5.9 0zm2.7 5c.1-1.6.3-3.1.7-4.6.2-.5-.7-.7-.8-.2-.5 1.6-.7 3.2-.8 4.8 0 .5.9.5.9 0zm3.8 5.3c0-1.3.2-2.6.5-3.8.1-.5-.7-.7-.8-.2-.3 1.3-.5 2.7-.5 4-.1.6.8.6.8 0zm2.1-1.9c0 1.4-.1 2.8-.1 4.2 0 .5.9.5.9 0 0-1.4.1-2.8.1-4.2 0-.5-.9-.5-.9 0zm1.6 4.1c.1 1.1 0 2.2-.2 3.3-.1.5.7.7.8.2.3-1.2.4-2.4.3-3.6-.1-.4-.9-.5-.9.1zm1.8 3.2c0 1 0 2 .1 3 0 .5.9.5.9 0 0-1 0-2-.1-3-.1-.5-.9-.5-.9 0zm2.7 3.5c.1 1.3.3 2.6.4 3.9.1.5.9.5.9 0-.1-1.3-.3-2.6-.4-3.9-.1-.6-1-.6-.9 0zm3.9 4.5c-.3.8-.5 1.6-.8 2.4-.2.5.7.7.8.2.3-.8.5-1.6.8-2.4.2-.5-.6-.7-.8-.2zm2.7 2.7c-.1.4-.1.9-.2 1.3-.1.5.8.5.9 0 .1-.4.1-.9.2-1.3 0-.5-.9-.5-.9 0zm2 2.9c-.3.8-.4 1.7-.2 2.5.1.5 1 .3.8-.2-.2-.7-.1-1.4.2-2.1.2-.5-.7-.7-.8-.2zm-3.2-4.2v1.1c0 .5.9.5.9 0v-1.1c-.1-.5-.9-.5-.9 0zm-27.7-49c.1-.8.2-1.7.3-2.5.1-.5-.8-.5-.9 0-.1.8-.2 1.7-.3 2.5 0 .5.9.6.9 0zm.9-3.9c.4-.8 1-1.5 1.8-2 .5-.3 0-1-.4-.7-.9.6-1.7 1.3-2.1 2.2-.3.6.4 1 .7.5zm1.5.5c-.7.5-1.2 1.3-1.4 2.1-.1.5.7.7.8.2.2-.7.6-1.3 1.2-1.7.5-.3-.1-.9-.6-.6zm.6 3.9c.3-.4-.4-.8-.7-.4-.6.8-1.1 1.7-1.7 2.5-.3.4.4.8.7.4.5-.8 1.1-1.6 1.7-2.5zm-.4 2.8c-.7.7-1.1 1.4-1.4 2.2-.2.5.7.7.8.2.2-.7.6-1.3 1.2-1.9.4-.3-.2-.9-.6-.5zm1 6.1c.5-1.1 1.1-2.2 1.6-3.2.2-.5-.5-.9-.7-.4-.5 1.1-1.1 2.1-1.6 3.2-.3.5.4.9.7.4zm1.4 4.2c.1-.8.4-1.4.9-2 .3-.4-.4-.8-.7-.4-.6.7-.9 1.5-1 2.4-.1.5.8.5.8 0zm1.4-4.7c.2-.6.5-1.2.7-1.7.2-.5-.6-.7-.8-.2-.2.6-.5 1.2-.7 1.7-.3.5.6.7.8.2zm1.1 5.8c.4-.7.9-1.3 1.3-2 .3-.4-.4-.9-.7-.4-.4.7-.9 1.3-1.3 2-.3.5.4.9.7.4zm1.1.7c-.3.7-.7 1.3-1.1 2-.3.5.5.9.7.4.4-.7.7-1.3 1.1-2 .3-.5-.4-.9-.7-.4zm2.2 2.7c.3-1.1.8-2 1.5-2.9.3-.4-.4-.8-.7-.4-.7.9-1.3 2-1.6 3.1-.1.5.7.8.8.2zm-1.1 5.1c.2-1 .6-1.9 1.3-2.7.3-.4-.4-.8-.7-.4-.7.8-1.2 1.8-1.4 2.9-.2.5.7.7.8.2zm3-.2c.2-.9.5-1.7.7-2.6.2-.5-.7-.7-.8-.2-.2.9-.5 1.7-.7 2.6-.2.4.6.7.8.2zm.4 1.9c-.2.7-.4 1.5-.7 2.2-.2-.1-.5 0-.6.3-.5 1.1-.6 2.3-.5 3.5.1.5.9.5.9 0-.1-.9 0-1.8.3-2.7.2.1.5 0 .6-.2.3-.9.6-1.9.9-2.8.1-.6-.7-.8-.9-.3zm2.5 2.7c-.2.8-.3 1.6-.5 2.4-.1.5.7.8.8.2.2-.8.3-1.6.5-2.4.1-.5-.7-.7-.8-.2zm3 3.8c.1-.5.2-.9.3-1.4.1-.5-.7-.8-.8-.2-.1.5-.2.9-.3 1.4-.1.5.7.7.8.2zm-2.7-5.1c0-.7.2-1.3.6-1.8.3-.4-.4-.8-.7-.4-.5.7-.8 1.4-.7 2.2 0 .5.8.5.8 0zm4.8 2.7.3-1.5c.1-.5-.7-.8-.8-.2l-.3 1.5c-.2.5.7.8.8.2zm-1.2 6.2c.2-.8.4-1.7.6-2.5.1-.5-.7-.7-.8-.2-.2.8-.4 1.7-.6 2.5-.1.5.7.7.8.2zm3.1 2.8c.2-.8.4-1.7.7-2.5.1-.5-.7-.7-.8-.2-.2.8-.4 1.7-.7 2.5-.2.5.7.8.8.2zm-2-2.6c-.6.8-1 1.7-1.2 2.6-.1.5.7.7.8.2.2-.9.6-1.7 1.1-2.4.4-.4-.4-.8-.7-.4zm2.4 3.6c-.2.6-.4 1.2-.7 1.8-.2.5.7.7.8.2.2-.6.4-1.2.7-1.8.2-.5-.6-.7-.8-.2zm1.6 1.3c-.1.5-.3 1-.4 1.6-.1.5.7.7.8.2s.3-1 .4-1.6c.2-.5-.7-.7-.8-.2zm.5-2.6c.2-.6.4-1.3.5-1.9.2-.5-.7-.7-.8-.2-.2.6-.4 1.3-.5 1.9-.2.5.7.7.8.2zm-1.3-3.8c.2-.7.4-1.3.7-2 .2-.5-.7-.7-.8-.2-.2.7-.4 1.3-.7 2-.2.5.6.7.8.2zm-2.5-2.7c-.3.6-.5 1.2-.8 1.8-.2.5.6.7.8.2.3-.6.5-1.2.8-1.8.2-.5-.6-.7-.8-.2zm6.4 3.5c-.2.5-.4.9-.6 1.4-.2.5.6.7.8.2.2-.5.4-.9.6-1.4.2-.4-.6-.7-.8-.2zm-1 6.1c-.2.7-.4 1.4-.7 2-.2.5.7.7.8.2.2-.7.4-1.4.7-2 .2-.5-.6-.7-.8-.2zm2.2 5.9c.2-.5.3-1 .5-1.6.2-.5-.7-.7-.8-.2-.2.5-.3 1-.5 1.6-.2.5.6.7.8.2zm-3.1-1.3c.1-.3.3-.6.4-.8.2-.5-.5-.9-.8-.4-.1.3-.3.6-.4.8-.2.5.6.9.8.4zm3.4-5.2c-.2.4-.4.9-.6 1.3-.2.5.5.9.7.4.2-.4.4-.9.6-1.3.3-.5-.4-.9-.7-.4zm-2.2-2.2c-.2.4-.3.7-.5 1.1-.2.5.5.9.7.4.2-.4.3-.7.5-1.1.3-.4-.5-.8-.7-.4zm2.9.1c.2-.6.4-1.1.6-1.7.2-.5-.6-.7-.8-.2-.2.6-.4 1.1-.7 1.7-.1.5.7.8.9.2zm1.8.1c-.2.5-.3 1-.5 1.5s.7.7.8.2c.2-.5.3-1 .5-1.5s-.6-.7-.8-.2zm-.8 7.2c.1-.8.3-1.7.4-2.5.1-.5-.8-.8-.8-.2-.1.8-.3 1.7-.4 2.5-.1.5.8.7.8.2zm.1 1.6c-.1.9-.2 1.8-.3 2.6-.1.5.8.5.9 0 .1-.9.2-1.8.3-2.6 0-.6-.9-.6-.9 0zm2.9-4.1c-.2.9-.4 1.8-.7 2.6-.1.5.7.7.8.2.2-.9.4-1.8.7-2.6.1-.5-.7-.7-.8-.2zm-1.3-2.3c-.2.7-.3 1.4-.5 2-.1.5.7.7.8.2.2-.7.3-1.4.5-2 .1-.5-.7-.7-.8-.2zm4-1.4v1.8c0 .5.8.5.9 0v-1.8c0-.5-.9-.5-.9 0zm-.6 4.9c-.1.9-.2 1.8-.2 2.8-.1.5.8.5.9 0 .1-.9.2-1.8.2-2.8 0-.6-.8-.5-.9 0zm-1.8 5.4v3.4c0 .5.9.5.9 0v-3.4c0-.6-.9-.6-.9 0zm4.8 3.5c.1 1.2-.1 2.4-.4 3.5-.1.5.7.7.8.2.3-1.2.5-2.5.4-3.7.1-.5-.8-.5-.8 0zm-1.6-3.6c.1 1.6.1 3.3.2 4.9 0 .5.9.5.9 0-.1-1.6-.1-3.3-.2-4.9-.1-.5-1-.5-.9 0zm2.1-4.9c0 1.6 0 3.2-.1 4.8 0 .5.8.5.9 0v-4.8c.1-.5-.8-.5-.8 0zm1.8 4.9c-.1.9-.2 1.8-.3 2.8-.1.5.8.5.9 0 .1-.9.2-1.8.3-2.8 0-.5-.9-.5-.9 0zm2.4-3c-.1 1.6-.2 3.1-.3 4.6 0 .5.8.5.9 0 .1-1.6.2-3.1.3-4.6 0-.5-.9-.5-.9 0zm3 2.4c.2 1.1.2 2.2-.1 3.4-.1.5.7.7.8.2.3-1.3.4-2.5.1-3.8-.1-.6-.9-.3-.8.2zm2.6-.5v3.6c0 .5.8.5.8 0v-3.6c.1-.6-.8-.5-.8 0zm2.7.3c.1 1.4 0 2.9-.3 4.3-.1.5.7.7.8.2.3-1.5.4-3 .3-4.5 0-.5-.9-.5-.8 0zm4.2-1.2v3.9c0 .5.8.5.8 0v-3.9c.1-.5-.8-.5-.8 0zm2.3.4c.2 1.3.2 2.7 0 4-.1.5.8.5.8 0 .2-1.3.2-2.7 0-4 0-.6-.9-.6-.8 0zm1.3-3.1c.3 1.6.6 3.1.8 4.7.1.5.9.3.8-.2-.3-1.6-.6-3.1-.8-4.7-.1-.6-.9-.3-.8.2zm2.9-.1c.1 1.1.2 2.1.4 3.2.1.5.9.5.8 0-.1-1.1-.3-2.1-.4-3.2 0-.6-.8-.6-.8 0zm-8.7-.6c.2 1.5.2 2.9.1 4.4-.1.5.8.5.8 0 .1-1.6.1-3.1-.2-4.6.1-.6-.7-.3-.7.2zm-4.6-.6c.5 1.4.7 2.8.7 4.3 0 .5.8.5.8 0 0-1.5-.2-3-.7-4.5-.1-.5-1-.3-.8.2zm-2.2-.3v3.4c0 .5.8.5.8 0v-3.4c.1-.5-.8-.5-.8 0zm-5.7.1c-.1 1.1-.2 2.1-.2 3.2 0 .5.8.5.9 0 .1-1.1.2-2.1.2-3.2 0-.5-.9-.5-.9 0zm-2.6-.6c.2-.9.4-1.9.7-2.8.1-.5-.7-.7-.8-.2-.2.9-.4 1.9-.7 2.8-.1.5.7.7.8.2zm3.3-3.6c.1 1 .1 2.1.2 3.1 0 .5.9.5.8 0-.1-1-.1-2.1-.2-3.1.1-.6-.8-.6-.8 0zm3 3.1c.1.7.1 1.4 0 2-.1.5.7.7.8.2.2-.8.2-1.6 0-2.5-.1-.4-1-.2-.8.3zm-4-3c0-.5-.8-.5-.8 0v2.2c0 .5.8.5.8 0v-2.2zm8.3 3c-.2-.8-.3-1.6-.5-2.5-.1-.5-.9-.3-.8.2.2.8.3 1.6.5 2.5.1.6.9.4.8-.2zm2.2 1c-.2-1.1-.5-2.2-.7-3.3-.1-.5-.9-.3-.8.2.2 1.1.5 2.2.7 3.3.1.5.9.3.8-.2zm.7 1.4c0 .8.1 1.5.1 2.2 0 .5.9.5.8 0 0-.8-.1-1.5-.1-2.2 0-.5-.8-.6-.8 0zm4.4-1c-.2-.7-.5-1.4-.7-2.1-.2-.5-1-.3-.8.2.2.7.5 1.4.7 2.1.1.5 1 .3.8-.2zm2.4.2c.1-1 0-2.1-.4-3-.2-.5-1-.3-.8.2.3.9.4 1.9.3 2.8 0 .6.9.6.9 0zm-2.6-4.7c-.2-.5-.5-1.1-.7-1.6-.2-.5-.9-.1-.7.4.2.5.5 1.1.7 1.6.2.5.9.1.7-.4zm1.6-3.7c-.2-.5-.9-.1-.7.4.4.9.8 1.7 1.2 2.6.2.5.9.1.7-.4-.4-.9-.8-1.7-1.2-2.6zm2.5 4.2c.2 1.1.3 2.2.5 3.3.1.5.9.3.8-.2-.2-1.1-.3-2.2-.5-3.3-.1-.5-.9-.3-.8.2zm4.6 2-.6-2.4c-.1-.5-.9-.3-.8.2l.6 2.4c.1.5.9.3.8-.2zm-.2 3c.4.9.6 1.8.6 2.8 0 .5.8.5.8 0 0-1.1-.2-2.1-.6-3-.2-.5-1-.3-.8.2zm3.2-6.1c-.1-.5-.9-.3-.8.2.3 1.1.6 2.1.8 3.1.1.5.9.3.8-.2-.3-1.1-.5-2.1-.8-3.1zm1.7-3.9c-.1-.5-.9-.3-.8.2l.9 3.9c.1.5.9.3.8-.2-.3-1.2-.7-2.5-.9-3.9zm1.5-.6c.2 1.4.5 2.7.8 4.1.1.5.9.3.8-.2-.3-1.4-.5-2.7-.8-4.1-.1-.5-.9-.3-.8.2zm-5.3 5.6c.1 1 .3 1.9.4 2.9.1.5.9.5.8 0-.1-1-.3-1.9-.4-2.9-.1-.5-.9-.5-.8 0zm-5.3-4.6c.4 1 .6 2 .5 3 0 .5.8.5.8 0 0-1.1-.1-2.2-.6-3.2-.1-.5-.9-.3-.7.2zm3.2 2.6c.2.5 1 .3.8-.2-.2-.7-.5-1.4-.7-2.1-.2-.5-1-.3-.8.2.2.7.5 1.4.7 2.1zm2.1-.9c.1.5.9.3.8-.2-.2-1-.5-2.1-.7-3.1-.1-.5-.9-.3-.8.2.2 1 .5 2.1.7 3.1zm2.2-5.9c-.1-.5-.9-.3-.8.2.2 1.2.5 2.3.7 3.5.1.5.9.3.8-.2-.2-1.2-.5-2.3-.7-3.5zm1.5-1.3c.2 1 .4 2.1.6 3.1.1.5.9.3.8-.2-.2-1-.4-2.1-.6-3.1-.1-.5-.9-.3-.8.2zm4.1.1c-.1-.5-.2-1.1-.4-1.6-.1-.5-.9-.3-.8.2.1.5.2 1.1.4 1.6.1.5.9.3.8-.2zm-.9 2.8.3 2.4c.1.5.9.5.8 0l-.3-2.4c-.1-.5-.9-.5-.8 0zm2.3-4.9c.4.8.7 1.6.8 2.4.1.5.9.3.8-.2-.1-.9-.5-1.8-.9-2.6-.2-.5-.9-.1-.7.4zm-3.3.8-.6-2.7c-.1-.5-.9-.3-.8.2.2.9.4 1.8.6 2.8.2.4.9.2.8-.3zm-3.6 1c-.2-1-.3-2-.5-3-.1-.5-.9-.3-.8.2.2 1 .3 2 .5 3 .1.5.9.3.8-.2zM123 129c-.1-.8-.2-1.5-.4-2.3-.1-.5-.9-.3-.8.2.1.8.2 1.5.4 2.3.1.6.9.3.8-.2zm-1.6.5c-.3-.6-.4-1.3-.3-2 .1-.5-.8-.5-.8 0-.1.8.1 1.6.4 2.4.2.5.9.1.7-.4zm8.8-5.9c-.1-.7-.2-1.4-.3-2.2-.1-.5-.9-.5-.8 0 .1.7.2 1.4.3 2.2.1.4.9.5.8 0zm2.1-2.5c-.2-.5-.9-.3-.8.2l.9 3c.2.5.9.3.8-.2l-.9-3zm3 .1c-.1-.5-.9-.3-.8.2.2 1 .5 2 .7 3 .1.5.9.3.8-.2-.2-1-.5-2-.7-3zm2.1 0c-.1-.5-.9-.3-.8.2.2.9.5 1.8.7 2.6.1.5.9.3.8-.2-.3-.9-.5-1.7-.7-2.6zm.7-4.4c-.2-.4-.9-.1-.7.4l.9 1.8c.2.4.9.1.7-.4-.2-.6-.5-1.2-.9-1.8zm2.8-2.1c-.1-.5-.9-.3-.8.2.3 1.1.6 2.3 1 3.4.1.5.9.3.8-.2-.3-1.2-.7-2.3-1-3.4zm1.9-1.2c-.2-.5-.9-.3-.8.2.4 1.1.8 2.2 1.2 3.4.2.5.9.3.8-.2-.4-1.2-.9-2.3-1.2-3.4zm-6.9 5.9c-.1-.8-.3-1.7-.4-2.5-.1-.5-.9-.3-.8.2.1.8.3 1.7.4 2.5.1.5.9.3.8-.2zm-2.9-2.8c0-.5-.8-.5-.8 0-.1 1.3.2 2.5.8 3.6.2.4.9.1.7-.4-.6-1-.8-2-.7-3.2zm2.2-6.9c-.1-.5-.9-.3-.8.2.3 1.3.7 2.6 1 3.8.1.5.9.3.8-.2-.3-1.2-.7-2.5-1-3.8zm2.6 2.7c-.1.5.8.5.8 0 .1-1.6-.5-3.1-1.6-4.2-.4-.4-.9.2-.6.5 1 1 1.5 2.3 1.4 3.7zm3.3.3c0-1.1-.2-2.2-.6-3.2-.2-.5-1-.3-.8.2.4 1 .6 2 .6 3 0 .5.8.5.8 0zm2-1.5c-.3-1.1-.6-2.1-.9-3.1-.1-.5-.9-.3-.8.2.3 1.1.6 2.1.9 3.1.1.5.9.3.8-.2zm.7-2.6c.2.8.3 1.6.5 2.3.1.5.9.3.8-.2-.2-.8-.3-1.6-.5-2.3-.1-.5-.9-.3-.8.2zm2.9.7c-.2-.5-.9-.3-.8.2.3.7.6 1.4.8 2.1.2.5.9.3.8-.2-.3-.7-.5-1.4-.8-2.1zm-7.9 4.6c-.1-.5-.9-.3-.8.2.2.6.3 1.3.5 1.9.1.5.9.3.8-.2-.1-.6-.3-1.3-.5-1.9zm1-6.5c-.1-1.2-.5-2.3-1-3.4-.2-.5-.9-.1-.7.4.5 1 .8 2 .9 3.1 0 .4.8.4.8-.1zm2.4-1c.2.5 1 .3.8-.2l-1.2-2.7c-.2-.5-1-.3-.8.2.4 1 .8 1.8 1.2 2.7zm4.2.4c-.4-1.5-1.1-2.9-1.9-4.2-.3-.4-1-.1-.7.4.9 1.2 1.5 2.6 1.9 4 .1.5.8.3.7-.2zm-3.9-10.3c.8 1.6 1.5 3.3 2.1 5 .2.5.9.3.8-.2-.6-1.8-1.4-3.5-2.2-5.2-.3-.4-.9 0-.7.4zm.1 6.6c.2.5.9.3.8-.2l-1.5-4.2c-.2-.5-.9-.3-.8.2l1.5 4.2zm-3.1 1.1c0 .5.8.5.8 0-.1-1.3-.4-2.5-1.1-3.7-.3-.4-.9-.1-.7.4.6 1 .9 2.1 1 3.3zm-2.6 2.8-.6-3.3c-.1-.5-.9-.3-.8.2l.6 3.3c.1.5.9.3.8-.2zm6.4-12.7c-.4-1.1-1-2.2-1.7-3.2-.3-.4-1 0-.7.4.7.9 1.2 1.9 1.6 3 .2.5 1 .3.8-.2zm1.5-1c.2.5.9.3.8-.2-.4-1.2-.9-2.2-1.6-3.3-.3-.4-.9-.1-.7.4.6 1 1.1 2 1.5 3.1z" fill="#000000" stroke-width="none" opacity="1"></path></g></g></g><g id="svga-group-mustache-single-move" transform="matrix(1,0,0,1,-0.5,-1)"><g id="svga-group-mustache-single" transform="matrix(0.7999993000000002,0,0,0.7999993000000002,20.19207277772024,23.21792717920873)"><path id="SvgjsPath11925" d="M72.58 117.66s7.99-7.37 27.3-7.29c19.31.09 29.41 8.69 29.41 8.69s-15.36 6.76-28.7-.88c-.01.01-15.81 6.5-28.01-.52z" fill="#ffffff" stroke-width="none" opacity="1"></path><path id="SvgjsPath11926" d="M129.53 118.78c-.07-.06-5.5-4.58-15.76-7.11-.01-.01-.01-.02-.02-.02-.08-.09-.17-.08-.25-.04-3.87-.93-8.42-1.58-13.62-1.61-1.43-.01-2.79.03-4.1.09a.16.16 0 0 0-.15.01c-16.16.85-23 7.01-23.31 7.29l-.38.35.44.25c.71.41 1.43.77 2.16 1.09.02.02.04.02.06.03 11.14 4.86 24.29.13 25.94-.5 4.8 2.71 9.88 3.57 14.42 3.57 8.04 0 14.37-2.72 14.47-2.77l.55-.24-.45-.39zm-4.2 1.21c-2.12-.67-3.3-3.18-4.8-4.69-.38-.38-.78-.73-1.21-1.05 1.34.59 2.59 1.21 3.77 2.16 1.22.98 2.31 2.11 3.38 3.24-.34.12-.73.23-1.14.34zm-2.27.55c-1.01-.67-1.75-1.68-2.48-2.67-.45-1.02-.82-2.12-1.39-3.05.97.75 1.84 1.64 2.7 2.73.73.93 1.47 2.16 2.57 2.66-.44.12-.91.23-1.4.33zm-4.72-6.31c.51.68.9 1.56 1.28 2.45-1.21-1.35-2.55-2.58-3.95-3.73.28.08.54.17.82.26.66.31 1.28.65 1.85 1.02zm-3.19-1.42s0 .01.01.01c1.62 1.57 3.36 3.02 4.82 4.75.03.03.05.07.08.1.57 1.26 1.23 2.43 2.33 3-.27.05-.55.1-.83.15-1.67-1.42-3.19-2.91-4.48-4.7-.83-1.16-1.6-2.35-2.48-3.47.18.06.37.11.55.16zm4.68 8.29c-1.45-1.55-3.62-2.71-4.74-4.46-.97-1.51-1.76-3.1-2.81-4.54.52.11 1.03.23 1.52.35 2.41 2.93 4.24 6.2 7.38 8.45-.45.07-.89.14-1.35.2zm-1.46.17c-.77-.81-1.37-1.7-2.02-2.56.96.83 2.02 1.57 2.92 2.47l-.9.09zm-2.34.14c-.36-.29-.72-.57-1.09-.84-2.07-2.07-4.01-4.45-5.56-6.98.95.95 2.19 1.65 3.35 2.41 1.51.98 2.82 2.02 3.86 3.51.46.66.82 1.27 1.35 1.79-.62.06-1.26.09-1.91.11zm-6.53-.44c-1.1-1.04-2.24-2.02-3.11-3.25-.14-.58-.13-1.17-.23-1.78-.12-.71-.33-1.41-.51-2.1-.25-.98-.42-2.02-.96-2.87.31.03.64.04.95.07.51 1.27.6 2.66 1.16 3.92.47 1.06 1.15 2.01 1.9 2.89.89 1.05 2.13 2.59 3.49 3.46-.88-.07-1.78-.18-2.69-.34zm-1.59-.33c-.29-.51-.59-1.02-.9-1.51.56.6 1.16 1.15 1.76 1.7-.28-.06-.57-.12-.86-.19zm-2.13-.59c-.68-1.14-1.03-2.38-1.64-3.58-.47-.91-1.07-1.7-1.38-2.7-.29-.96-.42-1.98-.62-2.97l.9.03c-.01.01-.02.02-.02.03.47 1.75 1.11 3.48 1.92 5.12.29.94.8 1.81 1.29 2.65.32.55.62 1.26 1.02 1.84-.48-.11-.98-.26-1.47-.42zm-2.38-.88c-1.24-1.24-1.85-3-2.21-4.73.06-.56.07-1.12.04-1.68.1-.64.12-1.3.09-1.96.2.01.4.01.6.02.32 2.14.76 3.7 1.79 5.61.59 1.09.83 2.37 1.44 3.43-.59-.21-1.17-.44-1.75-.69zm-7.71.13c1.8-2.85 4.31-4.93 4.86-8.53.16 0 .31.01.46.01.1 3.06-1.44 5.44-3.11 7.92-.64.19-1.38.39-2.21.6zm-5.7 1c.97-.66 1.96-1.36 2.92-2.15.01 0 .02.01.03.01 3.4-.04 6.69-4.19 6.98-7.42.11 0 .22.01.33.01-.63 1.91-1.32 3.66-2.56 5.26-.9 1.15-1.9 2.18-2.65 3.43-1.48.35-3.19.66-5.05.86zm-3.44.22c2.48-2.11 4.94-4.2 7.49-6.23a92.264 92.264 0 0 0-4.67 5.78c-.02.02-.01.05-.01.07-.12.08-.24.17-.36.25-.8.07-1.62.12-2.45.13zm-2.97-.07c.09-.04.17-.08.25-.12h.01l.01-.01c1.99-.97 4.1-2.05 6.03-3.35-1.32 1.16-2.57 2.4-3.8 3.56-.82 0-1.65-.02-2.5-.08zm-2.23-.23c1.3-.81 2.72-1.42 3.98-2.29.53-.36.95-.84 1.43-1.26.55-.48 1.17-.84 1.78-1.22-.82.65-1.7 1.23-2.45 1.96-.86.84-1.58 1.81-2.47 2.63-.01.01-.01.02-.02.03-.19.11-.39.22-.58.33-.55-.04-1.11-.1-1.67-.18zm-3.6-.78c4.91-1.69 9.18-3.57 12.15-7.99.59-.09 1.19-.18 1.82-.25-.44.48-.84.99-1.22 1.52-.44.61-.91 1.25-1.22 1.94-1.55.66-2.64 1.75-3.96 2.77-1.35 1.03-2.93 1.71-4.32 2.73-1.09-.17-2.17-.41-3.25-.72zm-1.33-.43c1.79-1.07 3.51-2.26 5.35-3.25.97-.52 1.99-.98 2.96-1.54-.4.37-.79.74-1.19 1.1-1.8 1.63-3.59 2.65-5.74 3.72-.03.02-.04.05-.04.09-.16.06-.32.11-.48.17-.28-.1-.57-.19-.86-.29zm-.83-.31c1.19-.6 2.14-1.42 3.17-2.38 1.91-1.77 4.2-2.77 6.48-3.94.71-.18 1.45-.34 2.23-.49-.42.32-.83.64-1.22.98h-.01c-3.37 1.84-7.11 3.53-10.06 6.05-.2-.08-.4-.15-.59-.22zm-1.25-.54c.68-.24 1.3-.64 1.81-1.16.43-.45.79-.97 1.2-1.43.3-.33.63-.61.97-.87 1.33-.59 2.92-1.19 4.78-1.75-1.13.54-2.24 1.13-3.23 1.85-1.6 1.17-2.84 2.88-4.63 3.76-.29-.13-.6-.26-.9-.4zm15.08-6.63c-1.48 1.79-2.61 3.38-4.8 4.65-.94.54-1.92 1-2.92 1.42 2.37-1.65 4.43-4.14 6.44-5.85.42-.08.84-.15 1.28-.22zm4.06-.51c-1.26.86-2.31 1.96-3.4 3.04.23-.39.46-.78.72-1.15.43-.6.91-1.17 1.36-1.75.44-.05.87-.1 1.32-.14zm1.72-.12c-2.03 4.03-6.22 6.26-10.15 8.39.26-.28.5-.57.76-.86.78-.89 1.68-1.55 2.59-2.29 2-1.62 3.6-3.64 5.68-5.17.37-.03.75-.05 1.12-.07zm2.03-.1c-.85.89-1.69 1.8-2.52 2.74h-.04c-.67.35-1.32.76-1.96 1.2 1.19-1.13 2.19-2.41 2.9-3.87.53-.03 1.07-.06 1.62-.07zm1.32-.03c-1.83 3.43-4.77 6.14-7.9 8.45a99.68 99.68 0 0 0 6.98-8.43c.3-.01.61-.02.92-.02zm2.53 4.78c.27 1.12.75 2.28 1.43 3.21-.53-.25-1.06-.52-1.58-.82.01-.81.06-1.59.15-2.39zm3.27-4.6c.67 1.43 1.03 3.08 1.34 4.62.09.43.11.88.15 1.32l-.01-.01c-1.04-1.93-1.82-4-2.68-6.01.41.01.8.05 1.2.08zm3.33 4.56c-.68-1.45-.98-2.99-1.74-4.43.66.07 1.3.15 1.94.24.67 1.98 2.06 3.75 3.27 5.43.67.94 1.38 1.86 2.14 2.72-.36-.23-.72-.46-1.07-.7-1.39-.92-3.48-1.88-4.54-3.26zm2.26-3.87c.53.87 1.25 1.58 1.71 2.52.2.41.48.79.78 1.16-1.66-1.03-3.35-2.11-3.99-3.94.52.08 1 .18 1.5.26zm1.93.37c.56.89 1.15 1.75 1.68 2.66.43.73.77 1.55 1.22 2.28-.15-.13-.29-.26-.45-.38-.18-.14-.38-.27-.57-.4-.53-.76-1.37-1.32-1.8-2.18-.43-.87-1.08-1.52-1.61-2.28.52.1 1.03.2 1.53.3zm-12.24-1.26c-.96 3.25-3.02 6.02-6.29 7.04 2.36-1.99 4.47-4.35 5.61-7.03.2 0 .38-.01.58-.01h.1zm-22.41 4.47c-.2.22-.4.44-.59.67-.83 1.02-1.62 1.57-2.76 2.03-.21-.11-.42-.21-.63-.32.61-.47 1.92-1.38 3.98-2.38zm21.26 3.3c.82-1.02 1.53-2.13 2.04-3.32-.15.89-.21 1.78-.04 2.63l-.03.01c-.05.01-.76.3-1.97.68zm14.87 2.87c-1.83-1.01-3.49-2.75-4.75-4.36-.05-.06-.08-.13-.13-.19.57.42 1.22.77 1.77 1.14 1.53 1.03 3.06 2.17 4.66 3.13.12.11.24.21.35.32a41 41 0 0 1-1.9-.04zm13.64-1.89c-1.11-1.2-2.34-2.53-3.7-3.63 2.67 1.3 4.44 2.5 5.25 3.09-.37.14-.89.33-1.55.54z" fill="#000000" stroke-width="none" opacity="1"></path></g></g><g id="svga-group-nose-single-move" transform="matrix(1,0,0,1,0,0)"><g id="svga-group-nose-single"><path id="SvgjsPath11897" d="M103.29 107.27c-1.43 1.14-6.6.84-8.09-1.16-1.49-2.01-1.23-5.37-.71-8.74.52-3.36 3.24-17.34 3.75-18.38.52-1.04 1.75-1.16 2.39 0s3.43 16.63 3.75 20.45.86 6.28-1.09 7.83z" fill="#ffffff" stroke-width="none" opacity="1"></path><path id="SvgjsPath11898" d="M95.15 107.24c2.35 1.15 5.1 2.37 7.68 1.14 2.66-1.27 2.67-4.06 2.36-6.63-.96-7.77-2.31-15.48-3.95-23.13-.2-.94-1.65-.54-1.44.4 1.2 5.6 2.24 11.23 3.09 16.89.41 2.72 1.34 5.93.94 8.68-.62 4.25-5.38 2.6-7.91 1.36-.88-.42-1.64.87-.77 1.29z" fill="#000000" stroke-width="none" opacity="1"></path></g></g><g id="svga-group-hair-front"><path id="SvgjsPath12008" d="M57.9 78.6s-3.5-3.7-3.9-6.1-.9-17.4.2-24.2 10.7-17.7 18.4-21.8 24.6-6 29.5-5.8 21.1 3.9 26.9 8.1 14.4 13.9 15.8 21.4 1.9 21.4 1.4 23-4.1 6.8-5 6.1-1.7-17-3.1-22.1-7-14.4-11.4-17.2-11.9 2.7-17.5 4.1c-5.6 1.4-14.6 1.9-21.6-1.6-6-3-12.1-4.6-15.3-2.3s-8.2 11.6-9.7 16.4c-2.2 6.8-2.6 15.7-2.8 17.5s-.7 5.1-1.9 4.5z" fill="#ffffff" stroke-width="none" opacity="1"></path><path id="SvgjsPath12009" d="M145.8 50.1c-1.5-7.8-10.3-17.8-16.2-22-6-4.3-22.4-8.1-27.5-8.3-4.5-.2-21.9 1.5-30 5.9-7.5 4.1-17.6 15.1-18.9 22.5-1.2 7-.7 22.2-.2 24.6.5 2.5 3.8 6.1 4.2 6.5l.1.1.2.1c.5.2 1 .2 1.5 0 1.1-.6 1.5-2.3 1.8-5.2 0-.3.1-.9.2-1.7.3-3.3.8-10.2 2.6-15.7 1.5-4.6 6.4-13.8 9.3-15.9 2.5-1.8 7.7-.9 14.3 2.4 7.1 3.6 16.2 3.2 22.3 1.7 1.9-.5 3.9-1.4 5.9-2.2 4-1.8 8.2-3.6 10.7-2 4 2.5 9.6 11.5 11 16.6.7 2.5 1.2 7.9 1.7 12.6.8 8.2 1.1 9.5 1.8 10.1.2.1.4.3.8.3.2 0 .3 0 .5-.1 1.8-.6 4.8-5.4 5.3-6.8.5-2-.1-16.4-1.4-23.5zm-.5 22.9c-.3 1.2-2.3 4-3.5 5.1-.1-.5-.2-1.2-.3-2.1.2.1.5.1.7-.1.7-.6 1.2-1.5 1.4-2.4.1-.8-1.1-1.1-1.2-.3-.1.7-.4 1.3-1 1.8-.2-1.6-.4-3.4-.5-5-.5-4.8-1-10.3-1.8-13-.5-1.8-1.5-4.2-2.9-6.7.3.1.5 0 .7-.3.4-.9.8-1.9 1.2-2.8.3-.7-.8-1.4-1.1-.6-.4.9-.8 1.9-1.2 2.8v.1c-1.5-2.6-3.3-5.2-5.1-7.3h.1c1.1-.2 2.1-.7 3-1.3.7-.4 0-1.5-.6-1.1-.8.5-1.7.9-2.7 1.1-.3.1-.4.2-.4.4-.9-.9-1.8-1.7-2.7-2.2-1.1-.7-2.2-.9-3.5-.9-2.8 0-6 1.4-9.2 2.8-2 .9-3.9 1.7-5.6 2.1-1.1.3-2.4.5-3.7.7.6-.6 1-1.4 1.2-2.3.2-.8-1-1.1-1.2-.3s-.7 1.6-1.3 2.1c-.2.2-.2.4-.2.6-.5 0-1 .1-1.4.1.1-.1.1-.2.1-.3.2-.9.4-1.9.6-2.8.2-.8-1-1.1-1.2-.3-.2.9-.4 1.9-.6 2.8-.1.3.1.5.2.6-3.7.1-7.7-.3-11.3-1.6.2-.3.2-.7-.1-.9-2-1.5-3.6-3.3-5-5.4-.4-.7-1.5 0-1.1.6 1.2 1.9 2.7 3.5 4.3 4.9-.1 0-.2-.1-.3-.1-5.2-2.6-12.3-5.1-16.3-2.2-3.4 2.5-8.5 12-10.1 16.9-1.8 5.7-2.4 12.7-2.7 16.1-.1.7-.1 1.3-.1 1.6-.2 1.9-.5 2.9-.6 3.3-1.1-1.3-2.9-3.6-3.2-5-.1-.5-.2-1.7-.3-3.4.1.1.1.3.2.4.4.7 1.5.1 1.1-.6-.3-.5-.4-1.2-.3-1.8.1-.6-.7-1-1-.6-.2-5.6-.1-13.4.6-17.7.6-3.3 3.4-7.9 7.1-12.1-.3 1.1-.5 2.1-.8 3.2-.2.8 1 1.1 1.2.3l.9-3.3c.1-.5-.4-.8-.8-.8 3.1-3.4 6.8-6.6 10.2-8.5 7.3-4 23.9-5.9 29-5.7 4.8.2 20.8 3.9 26.4 7.9 5.4 3.9 14 13.6 15.4 20.7.5 2.9.9 6.7 1.2 10.4-.3-.3-1.1-.2-1.1.4 0 .7-.1 1.3-.1 2-.1.8 1.2.8 1.3 0 0-.4 0-.7.1-1.1.1 1.6.2 3.2.2 4.6-.2.1-.4.2-.4.4-.1.9-.4 1.7-1 2.4-.5.6.6 1.3 1.1.6.2-.2.3-.4.4-.6-.3 2.1-.3 3.3-.4 3.7zM92.8 39.1c-.3-.7-1.5-.4-1.2.3.7 1.7 1.8 3 3.2 4.1.6.5 1.3-.6.6-1.1-1.1-.8-2-1.9-2.6-3.3zm-11.4-3.5c-.5-.6-1.4.3-.9.9.7.8 1.4 1.7 2 2.5.5.6 1.4-.3.9-.9-.6-.8-1.3-1.6-2-2.5zm-5.7-1.2c-.3-.7-1.5-.4-1.2.3.5 1.2 1.2 2.3 2.2 3.2.6.5 1.5-.4.9-.9-.8-.7-1.5-1.5-1.9-2.6zm-2.4 1.3c-.2-.8-1.4-.4-1.2.3.1.5.3 1 .4 1.5.2.8 1.4.4 1.2-.3-.2-.6-.3-1.1-.4-1.5zm-6.1 4.4c0-.8-1.2-.8-1.3 0 0 1.3.1 2.6.6 3.8.3.8 1.5.4 1.2-.3-.3-1.2-.5-2.3-.5-3.5zm-2.6 2.7c.1-.8-1.2-.8-1.3 0-.1 1.6.1 3.1.7 4.6.3.7 1.5.4 1.2-.3-.5-1.4-.7-2.8-.6-4.3zM62 48.6c.1-.8-1.1-1.1-1.2-.3-.3 1.9-.2 3.7.4 5.6.2.8 1.4.4 1.2-.3-.5-1.7-.6-3.4-.4-5zm-3 6.5c.1 1.4.3 2.8.4 4.2.1.8 1.3.8 1.3 0-.1-1.4-.3-2.8-.4-4.2-.1-.8-1.4-.8-1.3 0zm-.6 12c-.2-.8-1.4-.4-1.2.3.2.8.4 1.7.7 2.5.2.8 1.4.4 1.2-.3-.3-.8-.5-1.6-.7-2.5zm-.7 6.3c-.2-.8-1.4-.4-1.2.3.1.5.3 1 .4 1.5.2.8 1.4.4 1.2-.3-.1-.5-.2-1-.4-1.5zm.2-11.7c.1 1.1.3 2.2.4 3.3.1.8 1.3.8 1.3 0-.1-1.1-.3-2.2-.4-3.3-.1-.8-1.4-.8-1.3 0zm11.9-28.5c.1-.8-1.1-1.1-1.2-.3-.3 1.7-.2 3.4.1 5.2.2.8 1.4.5 1.2-.3-.3-1.6-.4-3.1-.1-4.6zm-3.6 5c-.1-.9.1-1.8.4-2.6s-.9-1.1-1.2-.3c-.3 1-.5 2-.4 3 0 .7 1.2.7 1.2-.1zm-5.1 7.4c-.3-1.1-.3-2.1-.2-3.2.1-.8-1.2-.8-1.3 0-.1 1.2 0 2.4.3 3.5.2.8 1.4.4 1.2-.3zm-1.6 5.6c0-1.2 0-2.5-.1-3.7 0-.8-1.3-.8-1.3 0 0 1.2 0 2.5.1 3.7 0 .8 1.3.8 1.3 0zm-2.2 4.7c0-1.2-.1-2.5-.1-3.7 0-.8-1.3-.8-1.3 0 0 1.2.1 2.5.1 3.7.1.8 1.3.8 1.3 0zm-.6 3.8c0-.8-1.3-.8-1.3 0v1.9c0 .8 1.3.8 1.3 0v-1.9zm18.6-31.1c.5-.7-.6-1.3-1.1-.6-.7 1-1 2.2-1 3.4 0 .8 1.2.8 1.3 0 0-1 .3-1.9.8-2.8zm2.4 1.5c-.1 1-.2 2-.2 2.9-.1.8 1.2.8 1.3 0 .1-1 .2-2 .2-2.9 0-.8-1.2-.8-1.3 0zm5.6.5c.1-.8-1.2-.8-1.3 0-.1 1 .1 1.9.5 2.7.3.7 1.4.1 1.1-.6-.3-.7-.3-1.4-.3-2.1zm-.6-2.8c0-.7.2-1.4.5-2.1s-.8-1.4-1.1-.6c-.4.9-.6 1.8-.6 2.7-.1.8 1.1.8 1.2 0zm5.7 8c-.3-.7-1.4-.1-1.1.6l.9 2.1c.3.7 1.4.1 1.1-.6l-.9-2.1zm10.8 7c-1-.4-1.9-1.1-2.6-1.9-.5-.6-1.4.3-.9.9.8.9 1.7 1.6 2.8 2.1.8.3 1.5-.8.7-1.1zm10.4-4.3c-.2 1.1-.7 2.1-1.5 2.9-.5.6.3 1.5.9.9.9-1 1.5-2.2 1.8-3.5.1-.8-1.1-1.1-1.2-.3zm4.7-1c-.7 1.2-1.5 2.2-2.5 3.2-.6.5.3 1.4.9.9 1.1-1 2-2.1 2.7-3.4.4-.7-.7-1.4-1.1-.7zm5.2-1.7c-.7 1.1-1.7 2.1-2.8 2.9-.7.5 0 1.5.6 1.1 1.3-.9 2.4-2 3.3-3.3.4-.8-.7-1.4-1.1-.7zm4.8-1.1c-.6.6-1.2 1.2-1.7 1.9-.5.6.3 1.5.9.9s1.2-1.2 1.7-1.9c.5-.6-.4-1.5-.9-.9zm-28.3 3c.3 1 .9 1.8 1.7 2.5.6.5 1.5-.4.9-.9s-1.1-1.1-1.4-1.9c-.2-.8-1.4-.4-1.2.3zm-3.8-2.6c.4 1 .9 2 1.3 2.9.3.7 1.4.1 1.1-.6-.4-1-.9-2-1.3-2.9-.4-.8-1.5-.1-1.1.6zm-3-4.2c-.1-.8-1.3-.8-1.3 0 .2 1.3.5 2.6 1.1 3.8.3.7 1.4.1 1.1-.6-.4-1-.7-2.1-.9-3.2zm-1.7-1.4c-.1-1.1 0-2.1.4-3 .3-.8-.9-1.1-1.2-.3-.4 1.1-.6 2.2-.4 3.4 0 .7 1.3.7 1.2-.1zm4.4-5.7c.1-.8-1.1-1.1-1.2-.3-.1.7-.3 1.4-.4 2.1-.1.8 1.1 1.1 1.2.3.1-.7.2-1.4.4-2.1zm1.7 8.1-.9-3c-.2-.8-1.4-.4-1.2.3l.9 3c.2.8 1.4.5 1.2-.3zm4.4 1.9c-.3-.7-1.5-.4-1.2.3.4 1.1 1 2 1.8 2.8.6.6 1.4-.3.9-.9-.7-.6-1.2-1.4-1.5-2.2zm4.4 1.1v2.8c0 .8 1.2.8 1.3 0v-2.8c-.1-.8-1.3-.8-1.3 0zm-3.5-5.1c.3.6.4 1.2.3 1.8-.2.8 1 1.1 1.2.3.2-1 .1-1.9-.4-2.8-.4-.6-1.5 0-1.1.7zm-2.9 0c.1-1.3.2-2.7.3-4 .1-.8-1.2-.8-1.3 0-.1 1.3-.2 2.7-.3 4 0 .8 1.2.8 1.3 0zm3-3.5c.3 0 .7-.3.6-.6l-.3-2.1c0-.3-.3-.6-.6-.6s-.7.3-.6.6l.3 2.1c0 .3.2.6.6.6zm5.1-.5v-2.1c0-.8-1.3-.8-1.3 0v2.1c0 .8 1.3.8 1.3 0zm4.2 1.1c.3-.9.2-1.8-.2-2.6-.3-.7-1.4-.1-1.1.6.2.5.2 1.1.1 1.7-.2.7 1 1 1.2.3zm4.6.9c0-.7.1-1.3.1-2 0-.8-1.2-.8-1.3 0 0 .7-.1 1.3-.1 2 0 .8 1.2.8 1.3 0zm4.3 1.2c0-.7.1-1.3.1-2 0-.8-1.2-.8-1.3 0 0 .7-.1 1.3-.1 2 0 .8 1.2.8 1.3 0zm3.8-1c-.2.8-.3 1.6-.5 2.4s1 1.1 1.2.3c.2-.8.3-1.6.5-2.4.2-.7-1-1.1-1.2-.3zm4.5 2.3c-.2.5-.4 1-.7 1.5-.3.7.7 1.4 1.1.6.2-.5.4-1 .7-1.5.3-.7-.7-1.3-1.1-.6zm4.3 6.5c-.8.5-1.6.7-2.5.7-.8 0-.8 1.3 0 1.3 1.1 0 2.2-.3 3.1-.9.7-.5.1-1.5-.6-1.1zm4.5 5.2c-.2.8-.6 1.4-1.2 1.9s0 1.6.6 1.1c.9-.7 1.5-1.6 1.8-2.7.2-.8-1-1.1-1.2-.3zm5.2 8.7c0 1.1-.4 2-1 2.9-.5.7.6 1.3 1.1.6.7-1 1.1-2.2 1.2-3.5 0-.8-1.2-.8-1.3 0zm1.6 8.9c.3-1.2.5-2.3.8-3.5.2-.8-1-1.1-1.2-.3-.3 1.2-.5 2.3-.8 3.5-.2.7 1 1.1 1.2.3zm.5 5.3c.7-1.2 1.1-2.4 1.2-3.8 0-.8-1.2-.8-1.3 0-.1 1.1-.4 2.2-1 3.2-.4.7.7 1.3 1.1.6zm.8 2.1-1.2 3.6c-.3.8 1 1.1 1.2.3l1.2-3.6c.2-.7-1-1.1-1.2-.3zm1.6-14.4c0-.8-1.2-.8-1.3 0 0 1.2-.1 2.3-.1 3.5 0 .8 1.2.8 1.3 0 0-1.2.1-2.4.1-3.5zm-4.1-5.1c-.1.8 1.1.8 1.3 0 .2-1.4-.1-2.7-.6-3.9-.3-.7-1.4-.1-1.1.6.4 1 .5 2.1.4 3.3zm-3.3-6.6c0 .7.1 1.3.1 2 .1.8 1.3.8 1.3 0 0-.7-.1-1.3-.1-2-.1-.8-1.4-.8-1.3 0zm-2.6-2.1c-.1.8 1.1.8 1.3 0 .1-1.1 0-2.1-.4-3.1-.3-.7-1.5-.4-1.2.3.3.9.4 1.8.3 2.8zm-3.2-4.8c.2.7.3 1.3.2 2-.1.8 1.2.8 1.3 0s0-1.6-.3-2.3c-.2-.8-1.4-.5-1.2.3zm-2.4-.7c.1-.6.3-1.2.4-1.7.2-.8-1-1.1-1.2-.3-.1.6-.3 1.2-.4 1.7-.2.8 1 1.1 1.2.3zm-20 3.6c.2-.6.4-1.2.5-1.9.2-.8-1-1.1-1.2-.3-.2.6-.4 1.2-.5 1.9-.3.8.9 1.1 1.2.3zm4.3-4.2c-.3.9-.5 1.8-.8 2.7-.2.8 1 1.1 1.2.3.3-.9.5-1.8.8-2.7.2-.7-1-1-1.2-.3zm4.1 1.4c.3-.8.5-1.6.8-2.4.3-.8-1-1.1-1.2-.3-.3.8-.5 1.6-.8 2.4-.3.7.9 1.1 1.2.3zm-13.2-4.6c0 .8-.1 1.6-.1 2.4 0 .8 1.2.8 1.3 0 0-.8.1-1.6.1-2.4s-1.2-.8-1.3 0zm5.7 3c.1-.9.2-1.8.4-2.7.1-.8-1.1-1.1-1.2-.3-.1.9-.2 1.8-.4 2.7-.1.8 1.1 1.1 1.2.3z" fill="#000000" stroke-width="none" opacity="1"></path></g><g id="svga-group-glasses-single-move" transform="matrix(1,0,0,1,0,0)"><g id="svga-group-glasses-single"></g></g></g></g></g><rect id="svga-credit-rect" width="200" height="15" x="0" y="185" fill="#ecf0f1" opacity="0.5" style="display: none;"></rect><text id="svga-credit-text" font-family="Avenir Next, Roboto, Helvetica, Arial, sans-serif" font-size="10px" text-anchor="start" font-weight="400" size="10px" anchor="start" weight="400" fill="#333333" x="33.298973083496094" y="182.60824728012085" style="display: none;"><tspan id="SvgjsTspan11702" dy="13" x="33.298973083496094">Created on AvatarMaker.com</tspan></text></g><defs id="SvgjsDefs11649"></defs></svg>