<svg xmlns="http://www.w3.org/2000/svg" version="1.1" width="600px" height="600px" viewBox="0 0 200 200" style="overflow:hidden!important;"><g id="svga-group-wrapper"><g id="svga-group-backs-single"></g><g id="svga-group-humanwrap-move" transform="matrix(1,0,0,1,0,0)"><g id="svga-group-humanwrap"><g id="svga-group-hair-back-move" transform="matrix(1,0,0,1,0,0)"><g id="svga-group-hair-back"><path id="SvgjsPath4298" d="M72.3 30.8s1.2-8.7 7.5-10.9 13.4 3.1 20 4.1 15.6-5.6 24.3-2.8 9.4 14.7 12.8 17.2c3.4 2.5 10 3.4 16.9 6.2 6.9 2.8 4.1 12.8 5 22.2.9 9.4 3.7 13.1 11.2 16.8 7.5 3.7 1.6 14.4-1.2 19.7-2.8 5.3.3 5.6 5.6 10.6s.9 16.2-5.9 18.7c-6.9 2.5-9.4 7.8-7.2 13.7 2.2 5.9 1.9 18.1-5.9 20.3-7.8 2.2-13.9-3.6-18.6 2.7-4.7 6.2-8.9 9.1-13.9 7.6-5-1.6-11.2-10.2-14-7.1-2.8 3.1-24.7 15.3-30.3 10.6s-7.8-14.7-14-11.9-9.7 4.4-13.7-1.6-4.6-8.9-10.6-8.2-10.6-6.4-10-13.6c.6-7.2 4.6-7.8-.7-15.3-5.3-7.5-1.6-16.2 3.4-21.2s3.1-14.7-1.6-19-6.9-11.9-2.2-17.2c4.7-5.3 9.7-5.9 9.7-10.6s-3.1-8.7 1.9-15.9 17.2-5.3 20.9-6.2c3.7-1.1 10.6-8.9 10.6-8.9z" fill="#ffffff" stroke-width="none" opacity="1"></path><path id="SvgjsPath4299" d="M175 113c-1.2-1.2-2.3-2.1-3.3-2.8-3.2-2.6-3.9-3.2-2.1-6.6l.3-.5c2.2-4.2 6-11.2 4.4-16.2-.6-1.9-1.9-3.3-3.8-4.3-7.4-3.7-9.8-7.3-10.7-16.1-.3-2.6-.2-5.2-.2-7.7.1-6.7.1-13-5.4-15.2-2.9-1.2-5.8-2-8.3-2.8-3.5-1-6.5-2-8.4-3.3-1-.7-1.9-2.8-2.8-5-1.9-4.6-4.3-10.3-10.3-12.2-5.3-1.7-10.8-.1-15.5 1.2-3.3 1-6.4 1.9-9 1.5-2.3-.3-4.7-1.2-7.2-2.2-4.4-1.6-9-3.4-13.3-1.9-6.1 2.1-7.8 9.8-8.1 11.4-2 2.3-7.2 7.5-9.9 8.2-.8.2-2.3.3-4 .3-5.4.2-13.5.5-17.5 6.3-3.9 5.6-3.2 9.5-2.5 12.9.2 1.2.5 2.4.5 3.6 0 2.2-1.3 3.3-4 5.2-1.6 1.2-3.6 2.6-5.5 4.7-5.2 5.9-2.7 13.9 2.2 18.6 2.5 2.3 4.1 6.3 4.2 10.2 0 3-.9 5.7-2.7 7.4-5.7 5.7-9 14.8-3.5 22.5 3.3 4.6 2.8 6.2 1.8 9-.5 1.4-1.1 3.2-1.3 5.6-.4 4.6 1.2 9.2 4.1 12.1 2 2 4.5 2.9 7 2.6 4.3-.4 5.3 1 7.8 5 .5.8 1.1 1.8 1.8 2.8 4.5 6.6 8.7 4.8 15 1.9 3.1-1.4 4.9 1 7.8 5.3 1.5 2.3 3.1 4.7 5.2 6.4 1.1.9 2.6 1.3 4.3 1.3 8.7 0 24.2-9 27.1-11.7 2.5 1.4 4.9 2.6 6.3 2.9l1.2.9c-1.1.1-2.2 0-3.3-.3-.8-.2-1.1 1-.3 1.2 1.5.4 3.4.5 5.1.1 1.4 1.1 2.8 2 4.2 2.4 6.5 2 11.5-3.2 15-7.9 2.4-3.2 5.1-2.8 8.9-2.2 2.7.4 5.8.9 9.2-.1 2.6-.7 4.6-2.4 6-5.1 2.5-4.9 2.2-12.2.6-16.5-.9-2.6-.9-5 0-7.1 1.1-2.3 3.4-4.2 6.6-5.3 4.1-1.5 7.6-6 8.7-11 .8-3.8-.1-7.3-2.4-9.5zm-57.3 28.9c.6-4.4-.2-8.2-1.1-11 3.5 3.5 7.2 6.9 3.9 12.1-1.5 2.4-4.3 4.6-6.1 7.1 1.4-2 2.8-4.5 3.3-8.2zm-5.1 15.4c.8 2.7 3.1 4.5 5.2 6.2 1.4 1.2 4.2 3.1 4.4 5 .3 2.6-1 4.3-2.8 5.1l-1.2-.9c1.5-.8 2.2-2.2.4-5.2-2.5-4.1-4.7-4.1-6.8-9.5-1-2.8.2-4.6 1.9-6.9-1.1 1.9-1.7 3.8-1.1 6.2zm23.3 11.3c-.6.8-1.1 1.4-1.7 2.1.8-3.3-.3-7-.3-10.7 0-8.1 8-8.4 10.1-15 2.3-7.1-7.3-11.8-.9-18.6.4 3.2.6 6.3 2.5 8.5 4 4.7 2.6 15.1-1.2 17.7s-6.1 5-5 7.6c.8 1.7.1 4.2-.4 5.6-1.1.6-2.1 1.5-3.1 2.8zm21.9-64.2c1.7 4.7 7.2 7.7 7.9 12.8.9 6.7-7.4 8.5-10.9 12.6-3.3 3.7-2.8 8.4-1.4 12.8 1.3 4.2 3.5 8.3 2.6 12.8-1 5.1-5.4 9.6-10.5 10.1-1-.1-1.9-.2-2.8-.2 2.8-1.6 6.3-4 7.5-7 2.1-5.4 3.8-11.4 1.4-18s1.2-11.8 4-18.4c2.8-6.6.9-10.4 1.7-16.1.1-.8.2-1.5.3-2.2 0 .2.1.5.2.8zm17.6 17.7c-.9 4.3-3.9 8.2-7.4 9.5-3.7 1.4-6.4 3.6-7.7 6.4-1.2 2.6-1.2 5.6-.1 8.6 1.4 3.9 1.6 10.6-.5 14.9-1.1 2.2-2.7 3.5-4.7 4.1-2.2.6-4.3.6-6.3.3 3.3-1.3 6-3.9 7.5-7.3 3.6-8-3-14.4-2.7-22.3.3-8.7 10.6-8.6 13.2-15.7 1.7-4.7-1.9-8.5-4.6-11.9-3.6-4.5-3.9-8.2-2-13.6.9-2.7 1.6-5.2.8-7.9 0-1.5-.3-3-1.1-4.6-.9-1.9-4.3-6.2-7.5-10.1-.6-2.2-.7-4.5-.6-7.2.3-6.6-.1-12.4-5.7-16.8-6-4.8-14-4.9-21.3-5-.8 0-.8 1.2 0 1.2 7.8.1 17 .3 22.6 6.6 4.9 5.5 2.6 12.3 3.1 18.8-2.5-3-4.5-5.3-4.5-5.3l-8.8-3.3-3.6 2.1c4.3 4.7 1.2 26.7-.9 34.8-2.1 8 .5 12.3 6.4 17.5 2.7 2.4 3.5 5.6 3.9 8.8-1.1 1-2.1 2-2.8 3.3-2.5 5 1.9 8.4 2.8 13.1 1.3 6.8-6.9 8.5-9.4 13.6-2.9 6.1 2.8 13.8-2.6 19l-.1.1c-2.6 2-5 2.6-7.6 1.9 1.4-.2 2.7-.8 3.9-1.9 2-1.8 3.3-4.6 3.1-7.4-.1-2.3-1.3-4.1-2.5-5.9-.9-2-1.8-3.4-2.3-4.5 0-.1-.1-.2-.1-.4-1.4-7.4 11.1-7.6 11.7-15 .3-3.3-1.9-6.1-3.8-8.6-4.6-6.2-6.1-13.4-.8-19.9.5-.6-.4-1.5-.9-.9-1.6 1.9-2.7 4.1-3.4 6.4 0-.7-.1-1.3-.1-2.1-.7-16.2-8.1-13.1-11.5-1.6-2.8 9.7 7 14.6 9.7 20.9s-2.9 9.5-5 13.7-3.8 6.8 0 10.4c3.7 3.5 8.6 8 3 14.7-1.2.4-2.4.6-3.7.4 2.1-1.2 3.4-3.2 2.6-6.2-.8-2.8-3.5-4.5-5.6-6.3-5.1-4.3-4.8-8.4-.6-13.2 3.7-4.2 8.3-8.7 4.4-14.4-3.2-4.8-8.2-7-9.7-13.1-1.9-7.7 1.7-15.2 8.4-19.1.7-.4.1-1.5-.6-1.1-6.2 3.7-10.2 10.3-9.5 17.7.3 2.6 1.1 5.1 2.3 7.3l-13-2.6-14.4 6.3c-1.3 7.7-4.7 6.8-2.5 11.7s17.3 23.4 17.3 23.4 3.6 2.4 7.4 4.6c-3.6 3.2-17 10.3-24.4 10.8-4.8-2.8-1.2-11.6-4.3-16-2.1-3.1-5.7-4.8-9.2-5.8-6.3-1.8-13.5-.7-19.1-4.6-4.8-3.4-5.4-7.9-2.8-12.9 1-1.9 2.1-3.2 2.3-5.4.1-.7.1-1.4 0-2.2.2-1.1 0-1.9-.5-2.7-.7-2.2-1.8-4.3-2.8-6.4 0-4.2.9-11 2.2-17.1 1.6-.9 3.3-1.6 4.9-2.6 7.9-4.8 7.5-14.2 6.5-22.3-.1-.8-1.3-.8-1.2 0 .8 6.2 1.6 14-3 18.9-1.9 2-4.5 3.1-6.9 4.3 1.1-5.1 2.4-9.5 3.3-10.8l.8-8.6S43.2 91 42.3 98.2c-.8 7.1-9.8 12.2-11.7 17.6-1.9 5.4 3.3 8.8 5.5 13.2 2.1 4.4-1 7.5-2.3 14.7-1.3 7.1 6.1 7.5 10.3 9.2 4.2 1.7 7.8 12.6 12.8 11.9 5-.6 11.5-1.9 15.9 2.1 2.8 2.5 4.8 5.8 5.9 7.9.1 1.8.6 3.5 1.8 4.8-.8-.1-1.4-.4-1.9-.8-1.9-1.6-3.4-3.8-4.8-6-2.2-3.2-4.4-6.6-7.7-6.6-.8 0-1.6.2-2.5.6-6.3 2.8-8.9 4-12.5-1.2-.7-1-1.3-1.9-1.8-2.7-2.6-4.1-4.2-6.5-9.7-5.9-2.4.2-4.2-1-5.4-2.1-2.5-2.4-3.9-6.5-3.5-10.4.2-2.2.7-3.8 1.2-5.1 1-3 1.8-5.3-2-10.8-4.8-6.7-1.8-14.8 3.3-19.9 2.2-2.2 3.3-5.3 3.2-8.9-.1-4.4-2-8.9-4.8-11.6-4.3-4-6.5-10.9-2.1-15.8 1.8-2 3.5-3.3 5.1-4.4 2.6-1.9 4.8-3.5 4.8-6.8a16 16 0 0 0-.5-3.9c-.6-3.4-1.2-6.5 2.2-11.4 3.5-5 11-5.3 16-5.5 1.9-.1 3.3-.1 4.4-.4 3.9-1 10.4-8.2 11.1-9l.2-.2v-.3c0-.1 1.2-8.2 6.8-10.1 3.6-1.3 7.6.2 11.9 1.8 2.5.9 5.1 1.9 7.6 2.3 3 .4 6.3-.5 9.8-1.6 4.7-1.4 9.6-2.8 14.3-1.3 5.1 1.6 7.3 6.9 9.1 11.1 1.1 2.6 2 4.8 3.5 5.9 2.1 1.6 5.3 2.5 9 3.6 2.5.8 5.3 1.6 8.1 2.8 4.3 1.8 4.2 6.9 4.2 13.4 0 2.6-.1 5.3.2 8 .9 9.5 3.7 13.6 11.8 17.7 1.4.7 2.4 1.7 2.8 3.1 1.4 4.2-2.1 10.8-4.2 14.7l-.3.5c-2.6 4.8-.6 6.4 2.6 9.1.9.8 2 1.6 3.2 2.8 2.9 2.5 2.6 5.9 2.2 7.8zM73.1 94.6l-2.4.7c-.9-5.2-3.1-10.5-5.3-15.1-.3-.7-1.4-.1-1.1.6 2.2 4.7 4.4 9.6 5.2 14.8l-5.9 1.7s-8.3 10.4-8.3 16.9c0 4.5 1.3 5.8 5 7.8.2.5.3.9.6 1.4 2.2 4 8.9 5.2 10.4 9.4 1 2.8-.3 6.1-2.4 7.7-.5.4-1 .7-1.5 1.1-.9.7-1.8 1.5-2.3 2.6-1 2.4 0 4.8 1.8 6.4 1.7 1.5 3.8 2.1 5.8 2.9 3.4 1.4 6.2 3.3 8.2 6.5 3.3 5.1 3.8 11.4 1.3 16.9-.3.7.7 1.4 1.1.6 3.3-7.1 1.8-15.7-3.8-21.2-1.4-1.4-3-2.5-4.8-3.3-1.1-.5-2.2-.8-3.3-1.2-1-.4-1.9-.9-2.9-1.4-2.8-3.9-2.7-6.8.4-8.4 2.4-1.8 4.9-3.5 4.5-6.9-.4-3.6-3.9-5.9-6.6-7.8-1.8-1.3-3.5-2.6-4.5-4.2 1.3.7 2.8 1.4 4.6 2.4 9 5 9.9 7.7 8.6 12.2s-4.1 4.7-.4 7.7c2.5 2 7.2 4.4 9.7 8.8.2.7.3 1.4.6 2.1.2.9.6 1.9 1 2.7.1.7.1 1.4.1 2.1 0 0 .3-.3.7-.9 1.2 1.8 3 3 5.4 2.9.8 0 .8-1.3 0-1.2-1.6-.9-3.2-1.9-4.8-2.9v-.1c.6-1.6.8-4.1-1.6-6.9-.2-.3-.4-.5-.7-.8-.4-1.3-.9-2.5-1.8-3.7-1-1.3-2.8-2-3.7-3.3-1.5-2.1-1.7-3.6-1.2-5.1 1.4-2.1 4.6-2.7 4.8-7.8.2-6.1-1.8-19.8-1.8-19.8l-8.7-16.9z" fill="#000000" stroke-width="none" opacity="1"></path></g></g><g id="svga-group-humanbody-back"><path id="SvgjsPath3675" d="M86.5 107c0 18.8 2.7 50.3-8.1 58s-31.8 13.9-36.7 24.4-3.6 29.4-3.6 29.4h124.1s.6-23.1-4.2-30.4c-6.6-10.1-28.5-17.7-36.5-22.9-8.1-5.2-10.9-32.2-10.9-58.8l-24.1.3z" fill="#ffffff" stroke-width="none" opacity="1"></path></g><g id="svga-group-chinshadow-single"></g><g id="svga-group-humanbody-front"><path id="SvgjsPath3676" d="M163.4 220.1H37.2l-.3-.9c-.1-.5-1.3-19.7 3.6-30.3 3.4-7.3 13.6-12.4 23.5-17.4 5.1-2.5 9.9-5 13.6-7.5 8.6-6 8.1-29.8 7.7-47.1-.1-3.5-.1-6.8-.1-9.8v-1.3l26.7-.4v1.3c0 32 3.8 53.5 10.3 57.7 2.4 1.6 6 3.3 10.2 5.4 9.7 4.7 21.9 10.6 26.7 18 5 7.6 4.4 30.9 4.4 31.2l-.1 1.1zm-124.1-2.6h121.6c-.1-2.4-.6-23.2-4-28.4-4.4-6.7-16.2-12.5-25.6-17-4.3-2.1-8-3.9-10.5-5.5-9.8-6.3-11.4-38.8-11.5-58.6l-21.5.4c0 2.6.1 5.5.1 8.5.4 18.9.9 42.4-8.8 49.3-3.8 2.7-8.7 5.1-13.9 7.7-9.5 4.8-19.4 9.7-22.3 16.1-3.3 6.9-3.7 25.9-3.6 27.5z" fill="#000000" stroke-width="none" opacity="1"></path><path id="SvgjsPath3677" d="M76.8 173.7c4.8 2.3 10.4 3.9 15.7 2.9.4-.1.4-.7 0-.8-5.1-.9-10.2-1.4-15.2-3.2-.6-.2-1.1.8-.5 1.1zm31.5 2.4c2.4.3 4.9-.4 7.1-1.2 2.1-.8 4.3-1.7 5.8-3.4.5-.5-.1-1.2-.7-.9-2.1.9-3.9 2.3-6.1 3-2 .7-4.1 1-6.2 1.5-.6.1-.4.9.1 1z" fill="#000000" stroke-width="none" opacity="1"></path></g><g id="svga-group-clothes-single"><path id="SvgjsPath5505" d="M158.7 180s-9.6-4.4-14.9-6.5c-5.2-2.1-12.2-5.7-12.2-5.7l1.4-1.4s-12.7-7-14.2-7.6c0 0 1.9 6.3 1.6 7.8-.2.7-1.3 9.4-2.6 18.2-7.2 5.7-17.5 12.6-17.5 12.6-5.2-2.5-11.9-6.7-17.1-10-1.3-9.7-2.8-20.1-2.9-20.8-.3-1.4 1.6-7.8 1.6-7.8-1.6.6-14.2 7.6-14.2 7.6l1.4 1.4s-7 3.6-12.2 5.7c-5.3 2-14.9 6.5-14.9 6.5s-5.1 7.2-5.8 20.6c-.1 1.2-.1 17.5-.1 18.8H164.5c0-1.3 0-17.6-.1-18.8-.7-13.4-5.7-20.6-5.7-20.6z" fill="#ffffff" stroke-width="none" opacity="1"></path><path id="SvgjsPath5506" d="M165.4 200.8c-.7-13.7-5.7-21.1-5.9-21.4-.1-.1-.2-.3-.4-.3-.1 0-9.7-4.5-14.9-6.5-3.8-1.5-8.7-3.9-10.9-5l.4-.4c.2-.2.3-.5.3-.9 0-.3-.2-.6-.5-.7-1.3-.7-12.8-7-14.3-7.6-.3-.1-.8-.1-1.1.2-.3.3-.4.7-.3 1 .9 2.9 1.7 6.6 1.6 7.2-.2.7-1.3 9.1-2.5 17.9-6.2 4.9-14.5 10.6-16.6 12-4.9-2.5-11.2-6.3-16.1-9.5-1.3-9.6-2.7-19.6-2.9-20.4-.2-.7.7-4.3 1.6-7.2.1-.4 0-.8-.3-1s-.7-.3-1.1-.2c-1.6.6-13.1 6.9-14.3 7.6-.3.1-.5.4-.5.7 0 .3.1.6.3.9l.4.4c-2.2 1.1-7 3.5-10.9 5-5.2 2-14.8 6.5-14.9 6.5-.2.1-.3.2-.4.3-.2.3-5.5 8-6 22.3v18.7h130.2v-19.6zm-34-34.2-.5.5c-.1.1-.2.2-.2.3l-2.3 2.1-.3-.3c1-.9 1.9-1.9 2.8-3 .1.2.3.3.5.4zm-1-.6c-.9.9-1.8 1.9-2.8 2.8l-1.3-1.2.9-.9 1.5-1.5c.6.2 1.2.6 1.7.8zm-2-1c-.5.5-1 .9-1.5 1.4l-.9.9-.9-.9c.3-.3.6-.7.9-1 .3-.4.7-.8 1-1.2.5.3 1 .5 1.4.8zm-1.6-.9c-.4.4-.8.8-1.1 1.2-.3.3-.6.6-.8.9l-.8-.8c-.1-.1-.1-.1-.2-.1.2-.3.4-.6.7-.9l.9-.9c.3.1.8.3 1.3.6zm-1.7-.9c-.6.6-1.2 1.2-1.7 1.9-.3 0-.6.1-.8.3-.4.4-.4 1 0 1.4l1.3 1.3-3.3 3.3c.4-2.6.6-4.4.7-4.6.1-.3.1-.8 0-1.4h.1c.6-.5 1.1-1.2 1.7-1.8.3-.3.6-.7.9-1 .3.2.7.4 1.1.6zm-1.5-.8c-.3.3-.5.6-.8.9-.5.6-1.1 1.1-1.5 1.7-.1-.7-.2-1.4-.4-2.2l.2-.2c.3-.3.7-.7 1-1.1l1.5.9zm-1.9-1.1-.9.9c-.1-.6-.3-1.1-.4-1.6.4.3.8.5 1.3.7zm-1.1 10.6c1.2-1.2 2.4-2.5 3.5-3.7l1.6 1.6c-2 2-4 4.1-5.7 6.3.2-1.5.4-2.9.6-4.2zm-.7 4.7c.1 0 .1 0 0 0 2.2-2.1 4.1-4.3 6.1-6.6l1.6 1.6c-2.7 2.2-5.6 4.5-8 7.1.2-.7.2-1.4.3-2.1zm-1 7.6c3.8-3.1 7.4-6.8 11-10.2.1-.1-.1-.3-.2-.2-3.5 3.1-7.3 6.2-10.7 9.5.2-1.3.3-2.5.5-3.7 2.8-2.5 5.5-5.3 8.3-7.9l4.3 4.1c-4.6 4-9.4 8.1-13.8 12.4.2-1.2.4-2.6.6-4zm-.7 5c4.9-4.1 9.5-8.6 14.1-12.9l1.4 1.4c-.2.5-.5 1.2-.8 2.1-5.1 4.4-10.4 8.6-15.3 13.3.3-1.4.5-2.7.6-3.9zm-.6 4.8c5.3-4.3 10.2-9.1 15.2-13.7-.6 1.6-1.4 3.5-2.1 5.6-4.7 3.6-9.1 7.8-13.5 11.8 0-1.3.2-2.5.4-3.7zm-.6 4.5c.8-.6 1.5-1.4 2.1-2 1.4-1.2 2.8-2.5 4.1-3.7 2.4-2.1 4.9-4.2 7.2-6.5-.3.9-.6 1.7-1 2.6l-.9 2.7c-3.8 3.9-7.8 7.5-12.1 10.8.2-1.2.4-2.5.6-3.9zm6.3 7.2c-2.9 1.6-5.6 3.7-8.3 5.6.2-1.5.5-2.9.7-4.2 2.2-1.6 9.4-6.7 10.9-8-.1.5-1.6 5.4-3.1 10.2-3.1 1.9-6.1 4.1-9.2 6.1.2-1.1.4-2.3.6-3.6 2.9-1.9 5.9-3.7 8.5-5.9.1-.1 0-.2-.1-.2zm-7.5.6c.3-1.9.6-3.2.7-3.2.1 0 1.7-1.4 2.3-1.9 1.2-1 2.4-2 3.5-3.1 2.1-1.9 4.1-3.8 5.9-5.8-.6 2.1-1.2 4.2-1.6 6.1-1.6 1.5-8.1 5.9-10.8 7.9zm-32-7c-1.2.9-6.1 6-7.9 7.8-.2-.8-.3-1.5-.5-2.2 2.3-2.7 6.2-7.5 7.8-9.8.3 1.4.5 2.8.6 4.2zm-.6-4.9c-2 2.7-5.6 6.9-7.9 9.7-.4-1.8-.7-3-.7-3.2 0-.1.1-.1.1-.1.1-.1.1-.1 0-.1 2.3-2.7 4.5-5.5 6.8-8.2.1-.1-.1-.3-.2-.2l-6.9 8.1c-.2-.9-.5-2-.8-3.1l.5-.5c2.7-2.9 5.4-5.9 8.1-8.9.4 2 .7 4.3 1 6.5zm-1-7.1c-2.9 3-5.9 6-8.7 9.2-.2-1-.5-2-.8-3 3.3-2.9 6.3-6.4 9-9.9.2 1.2.4 2.5.5 3.7zm-8.5-4.9c1.3-1 2.4-2.4 3.5-3.6 1.1-1.2 2.2-2.3 3.3-3.5l.3 2.1h-.1c-3.2 3.4-6.5 6.5-9.9 9.6-.2.2.1.6.3.4 3.5-2.9 6.7-6.1 9.7-9.5.1.9.3 1.9.4 2.9-2.9 2.9-5.9 5.8-8.5 8.9-.2.2.1.5.3.3 2.9-2.7 5.6-5.8 8.3-8.7.1.6.2 1.2.2 1.8-2.9 3.4-6 6.6-9.1 9.9-.4-1.4-.8-2.7-1.3-4-1.8-4.9-3.7-9.7-4.3-11.3L78 166.8c.1-.1.2-.2.2-.4l1-1c-.1.6-.1 1 0 1.3.1.2.2 1.6.5 3.6-2.7 2.7-5.7 5.2-8.4 7.9-.1.1.1.4.2.3 3-2.2 5.7-4.9 8.3-7.6.1.5.1 1 .2 1.5-2.4 2.4-4.9 4.7-7.2 7.2-.2.2.1.5.3.3 2.4-2.2 4.7-4.7 7-7 .1.6.2 1.3.3 2-1.2 1.3-2.5 2.5-3.7 3.8-1.1 1.1-2.4 2.2-3.3 3.5 0 .2.2.3.3.2zm4.1-17.3 1.8-1.5c-.1.5-.2 1-.2 1.4-.3.3-.7.6-1 .9 0-.2-.1-.4-.3-.6-.1-.1-.2-.1-.3-.2zm1.6-4c-2.4 1.8-4.9 3.6-7.2 5.6-.1.1 0 .3.2.2 2.7-1.9 5.4-4 7.9-6.1-.2.7-.4 1.6-.6 2.3-.8.6-1.6 1.2-2.3 1.8-.2 0-.5.1-.7.3l-2 1.9c-.1.1-.2.1-.2.2v.1l-2.1 2-2.3-2.2c-.1-.1-.1-.2-.2-.3l-.5-.5c2.6-1.3 7-3.7 10-5.3zm-36.7 19.7c.3-.1 1-.4 1.8-.8.2.2.4.6.6 1-.3-.2-.6-.4-.8-.6-.2-.2-.4.2-.2.4.5.4 1 .8 1.6 1.2.3.7.7 1.5 1.1 2.5-1.5-1-3-1.9-4.5-2.9.1-.4.3-.7.4-.8zM42 182c1.7 1.1 3.3 2.3 5 3.2.3.9.7 1.8 1 2.9-2-1.8-4.5-3.1-6.8-4.6.3-.6.6-1.1.8-1.5zm-3.6 10c3.6 2.3 7.3 4.6 11.2 6.3.2.1.3-.2.2-.3-3.7-2.2-7.5-4.2-11.2-6.5.2-.8.4-1.6.6-2.3 3.2 2.1 6.4 4.3 9.9 5.7.2.1.3-.2.1-.3-3.2-2.1-6.6-3.9-9.9-5.9.3-.9.6-1.8.9-2.6 2.6 1.8 5.2 3.6 8 5.1.2.1.4-.2.2-.4-2.6-1.9-5.3-3.5-8.1-5.1.3-.7.5-1.3.8-1.9 2.2 1.6 4.5 3.4 7 4.6h.1c.2.7.4 1.5.6 2.3.8 3.4 1.2 7.6 1.4 10.3-4.1-2.4-8.2-4.6-12.1-7.1 0-.6.2-1.3.3-1.9zm-.4 2.4c3.9 2.7 7.9 5.2 12.2 7.2 0 .1 0 1.1.1 2.6-3.5-2.1-9.3-5.4-12.7-7.3.1-.9.2-1.8.4-2.5zm-.5 2.9c2.9 1.7 9.3 5.8 12.8 7.7v1.5c-1.8-.9-9.2-4.7-9.8-5.1-1-.6-2.1-1.3-3.2-1.8.1-.8.2-1.6.2-2.3zm-.2 2.8c.9.7 2 1.2 2.9 1.8.4.2 8.2 4.3 10.2 5.3 0 1 .1 2.1.1 3.2-4.5-2.8-8.8-5.9-13.3-8.6 0-.5 0-1.1.1-1.7zm-.1 2.2c4.2 3.1 8.9 5.7 13.3 8.5 0 .9.1 1.9.1 2.8-2.3-1.4-4.6-2.8-7-4.1-2.2-1.2-4.5-2.1-6.4-3.8v-3.4zm0 3.7c1.5 1.4 3.4 2.3 5.2 3.3 2.8 1.5 5.5 3.1 8.2 4.7 0 1 .1 1.9.1 2.7-4.2-2.9-9.2-4.5-13.5-7.3V206zm0 12.3v-3.4c2 1.2 4.1 2.4 6.3 3.4h-6.3zm11.7 0v-.1c-3.8-1.9-7.7-3.4-11.3-5.6-.1-.1-.2.1-.1.2 3.4 2.3 7.2 4.6 11.2 5.6h-4.3c-2.4-1.3-4.8-2.4-7.1-3.7v-5c4 3 8.8 5.2 13.4 7.2h.1v1.5l-1.9-.1zm3.3 0c-.1-4.2-.5-24.1-1.5-28.1-1.1-4.6-3-9.2-4.4-11.2 3.3-1.5 7.9-3.5 10.9-4.7 4.2-1.7 9.6-4.4 11.6-5.4l2.1 1.9-5.9 5.7c-.3.3-.4.7-.2 1.1 0 .1 2.3 5.9 4.5 11.9 1.6 4.4 6.2 24.2 7.2 28.7H52.2zM76 207.7c2-1.9 7.1-7 7.9-7.8 0 .2.2 1.8.6 4 0-.1-.1-.2-.2-.1-2.7 2.1-5.1 4.7-7.6 7.1-.2-1.1-.5-2.2-.7-3.2zm.8 3.5c2.6-2.4 5.4-4.7 7.7-7.3v-.1c.2 1.1.3 2.4.5 3.7 0 0-.1-.1-.1 0-2.7 1.7-5.2 4.4-7.4 6.8-.3-1-.5-2-.7-3.1zm.7 3.4c1.2-1.2 2.4-2.4 3.7-3.5 1.2-1.1 2.7-2.2 3.8-3.4.2 1.5.4 3.1.6 4.6-2.7 1.6-5.2 3.8-7.3 6-.2-.8-.5-2.1-.8-3.7zm1.1 3.7c2.4-1.9 4.8-3.8 7.1-5.8.2 1.5.4 2.9.6 4-.8.6-1.5 1.2-2.3 1.8h-5.4zm6 0c.6-.4 1.1-.9 1.7-1.4.1.6.2 1.1.2 1.4h-1.9zm3.6 0c-.6-4.9-3.1-24.7-3.7-29 4.9 3.1 10.8 6.6 15.4 8.9.3.2.7.1 1-.1.5-.3 8.7-5.9 15.6-11.1-.4 2.9-.8 5.8-1.1 8.3l-.1.1c-.1.1 0 .2.1.2-.4 2.9-3 18.8-3.6 22.7H88.2zm32.6 0h-4.9c1.9-.9 3.9-1.8 5.8-2.9-.4 1.2-.7 2.2-.9 2.9zm-5.3 0h-1.8c.1-.6.3-1.6.5-2.7 3.1-1.9 6.3-3.8 9.2-6.1-.6 1.9-1.1 3.7-1.6 5.3-2.1 1.1-4.2 2.4-6.3 3.5zm33.1-18.4c-.1 0-.1.1-.2.1-.2.1-.1.4.1.4-.1.9-.1 16.1-.1 17.9h-26c1.4-4.6 6.4-20 6.8-21.7l.5-.5c.2-.2-.1-.4-.3-.3l-.1.1c.6-2.1 1.2-4.3 1.9-6.3 2.2-6 4.5-11.9 4.5-11.9.1-.4.1-.8-.2-1.1l-5.9-5.7 2.1-1.9c1.9 1 7.3 3.7 11.6 5.4 3 1.2 7.6 3.2 10.9 4.7-1.3 2-3.3 6.6-4.4 11.2-.6 3.2-1 6.9-1.2 9.6zm4.8 18.4c3.4-1.8 6.8-3.6 9.9-5.8.1-.1 0-.2-.1-.1-3.6 1.8-7 4-10.4 6h-2.4v-2.2c4.1-2.5 8.4-4.9 12.2-7.8.1-.1 0-.2-.1-.2-4.2 2.1-8.2 5-12.1 7.6v-3.2c4.5-2.6 9-5.4 12.9-8.7.1-.1 0-.2-.1-.1-4.3 2.7-8.5 5.7-12.9 8.4V209c2.3-1.5 4.7-2.9 6.8-4.7.1-.1 0-.2-.1-.2-2.3 1.2-4.5 2.9-6.6 4.4v-4.2c.6-.3 1.3-.7 2-1.1 1.2-.9 3.2-2 4.4-2.9 1.9-1.4 3.7-2.8 5.5-4.2.2-.1-.1-.4-.2-.3-2.1 1.5-4.2 3.1-6.3 4.6-.9.7-3.7 2.4-5.4 3.5V202c3.5-2.6 6.8-5.4 10-8.2.2-.2-.1-.4-.3-.3-3.1 2.8-6.4 5.4-9.7 7.9 0-.7.1-1.6.2-2.4 3.4-2.7 6.7-5.4 10.1-8.1.2-.1-.1-.4-.2-.2-3.3 2.6-6.5 5.1-9.8 7.6l.3-2.4c.1 0 .1-.1.2-.1.1-.1 0-.3-.1-.3v-.1c3.1-2.6 6.1-5.3 9.1-7.9.1-.1-.1-.3-.2-.2-2.9 2.5-5.9 4.9-8.8 7.4.2-1.2.4-2.5.7-3.7 2.3-2 4.6-4.1 6.8-6.2.1-.1-.1-.3-.2-.2-2.2 1.8-4.3 3.7-6.4 5.6.2-.9.5-1.8.8-2.7.5-.4.9-.9 1.4-1.3 1.2-1.1 2.5-2.1 3.7-3.2.1-.1-.1-.3-.2-.2-1.2 1-2.4 1.9-3.6 2.9-.3.3-.7.5-1 .8.3-.9.6-1.7.9-2.4.7-.6 1.3-1.3 1.8-2.1 0-.1 0-.1-.1-.1-.5.4-.9.9-1.3 1.3.8-1.7 1.4-3 1.8-3.5.8.4 1.5.7 1.8.8.8 1.2 4.4 7.5 5.3 18.1-1.6 1.5-3.3 2.8-5 4.1h.2c.3 0 .9-.4 1.5-.9 1.4-1.1 2.1-1.5 3.3-2.8.1.6.1 1.2.1 1.8v15.4c-1.3.5-2.6 1.2-3.8 1.9l-6.3.2zm7 0c1-.5 2.1-1 3.1-1.5v1.5h-3.1zM79.1 168c-2.7 2.4-5.5 4.6-8 7.1-.1.1.1.4.2.2 2.8-2.2 5.4-4.8 8.1-7.2.1 0-.1-.2-.3-.1z" fill="#000000" stroke-width="none" opacity="1"></path></g><g id="svga-group-head" transform="matrix(1,0,0,1,0,0)"><g id="svga-group-ears-left-move" transform="matrix(1,0,0,1,0,0)"><g id="svga-group-ears-left"><path id="SvgjsPath3626" d="M64.8 80.5c-.2-.3-3.3-4.3-5.9-6.7s-3.4-2.4-4.6-.9c-1.3 1.5-2.9 9.1-2.5 12.4.4 3.4 3.6 8.7 5.2 11.7 1.7 3 3.3 6.7 5.1 6.3 1.9-.4 4.4-4.6 5.7-7.7 1.2-3.1.6-10.9-3-15.1z" fill="#ffffff" stroke-width="none" opacity="1"></path><path id="SvgjsPath3627" d="M56.9 98.9c-.3-.5-.5-1-.8-1.4l-.6-1c-1.8-3.1-4.4-7.8-4.8-11-.4-3.5 1.2-11.4 2.7-13.2.6-.7 1.2-1.3 2.2-1.4 1.2-.1 2.3.7 3.9 2.2 1.6 1.4 3.5 3.6 5.8 6.5l.2.3c3.9 4.6 4.5 12.8 3.2 16.1-1.1 3-3.9 7.8-6.4 8.3h-.5c-2 .1-3.4-2.6-4.9-5.4zm7.2-17.8s-.1-.1-.2-.3c-2.2-2.8-4.1-5-5.6-6.3-1.2-1.1-2.1-1.7-2.4-1.7-.2 0-.4.2-.8.7-1 1.2-2.6 8.4-2.3 11.7.3 2.8 2.8 7.3 4.5 10.3l.6 1c.3.5.5 1 .8 1.4.9 1.7 2.5 4.6 3.3 4.4 1.2-.2 3.6-3.7 4.9-7.1 1.1-2.8.4-10.2-2.8-14.1z" fill="#000000" stroke-width="none" opacity="1"></path><path id="SvgjsPath3628" d="M54 87c-.3-2.3-.5-7.8.8-9.6 2.2-2.9 6 6.4 6.9 9.3 0 .1.1.2.1.3.2.3-.1.7-.4.6-.4-.2-.9-.6-1.3-.8-1.1-.5-1.6.5-1.3 1.8.4 1.8 1.4 2.9 2.2 4.3.1.2 0 .4-.2.3-1.6-.9-3.5-4.5-3.1-6.6.3-2 1.9-1.8 3.1-.8-.7-1.7-1.5-3.3-2.5-4.8-.6-.9-1.2-2-2.2-2.2-1.2-.2-1 .3-1.2 1.8-.8 4.8-.3 10.4 2.5 14.5.1.1 0 .2-.1.1-1.7-2.3-2.9-4.9-3.3-8.2z" fill="#000000" stroke-width="none" opacity="1"></path></g></g><g id="svga-group-ears-right-move" transform="matrix(1,0,0,1,0,0)"><g id="svga-group-ears-right"><path id="SvgjsPath3629" d="M135.2 80.5c.2-.3 3.3-4.3 5.9-6.7 2.6-2.4 3.4-2.4 4.6-.9s2.9 9.1 2.5 12.4c-.4 3.4-3.6 8.7-5.2 11.7-1.7 3-3.3 6.7-5.1 6.3s-4.4-4.6-5.7-7.7c-1.2-3.1-.6-10.9 3-15.1z" fill="#ffffff" stroke-width="none" opacity="1"></path><path id="SvgjsPath3630" d="M138.1 104.4h-.5c-2.5-.5-5.2-5.4-6.4-8.3-1.3-3.4-.7-11.5 3.2-16.1l.2-.3c2.3-2.9 4.2-5.1 5.8-6.5 1.6-1.4 2.7-2.2 3.9-2.2 1 .1 1.6.7 2.2 1.4 1.5 1.8 3.1 9.7 2.7 13.2-.4 3.2-3 7.9-4.8 11l-.6 1c-.3.5-.5.9-.8 1.4-1.4 2.7-2.8 5.4-4.9 5.4zm-2.2-23.3c-3.2 3.9-3.9 11.2-2.8 14.1 1.3 3.4 3.7 6.9 4.9 7.1.8.2 2.4-2.7 3.3-4.4.3-.5.5-1 .8-1.4l.6-1c1.7-3 4.2-7.5 4.5-10.3.4-3.3-1.3-10.5-2.3-11.7-.4-.4-.6-.7-.8-.7-.3 0-1.2.5-2.4 1.7-1.5 1.4-3.3 3.5-5.6 6.3 0 .2-.1.3-.2.3z" fill="#000000" stroke-width="none" opacity="1"></path><path id="SvgjsPath3631" d="M146 87c.3-2.3.5-7.8-.8-9.6-2.2-2.9-6 6.4-6.9 9.3 0 .1-.1.2-.1.3-.2.3.1.7.4.6.4-.2.9-.6 1.3-.8 1.1-.5 1.6.5 1.3 1.8-.4 1.8-1.4 2.9-2.2 4.3-.1.2 0 .4.2.3 1.6-.9 3.5-4.5 3.1-6.6-.3-2-1.9-1.8-3.1-.8.7-1.7 1.5-3.3 2.5-4.8.6-.9 1.2-2 2.2-2.2 1.2-.2 1 .3 1.2 1.8.8 4.8.3 10.4-2.5 14.5-.1.1 0 .2.1.1 1.7-2.3 2.9-4.9 3.3-8.2z" fill="#000000" stroke-width="none" opacity="1"></path></g></g><g id="svga-group-faceshape-wrap"><g id="svga-group-faceshape-single"><path id="SvgjsPath3832" d="M139.4 74.3s.2-8.5-1.2-16.1c-2-10.8-13.3-27.4-37.2-27.4S69.1 43.5 65.5 53c-3 8.1-3 21.3-3 21.3s-1.4 34.3 1.9 45.5c0 0 8.7 12.8 34.4 22.7 0 0 33.3-10.9 39.9-23.9 0 0 1.2-34.6.7-44.3z" fill="#ffffff" stroke-width="none" opacity="1"></path><path id="SvgjsPath3833" d="m98.7 143.9-.4-.2c-25.8-9.9-34.6-22.6-35-23.1l-.1-.2-.1-.2c-3.3-11.2-2-44.1-1.9-45.9 0-.9 0-13.6 3.1-21.8 5.8-15.5 17.8-23 36.7-23 10.9 0 20.5 3.4 27.7 10 5.5 5 9.6 11.9 10.8 18.5 1.4 7.5 1.2 15.6 1.2 16.3.5 9.7-.7 42.9-.7 44.3v.3l-.1.3c-6.8 13.4-39.3 24.1-40.7 24.6l-.5.1zm-33.2-24.6c1.1 1.5 10.2 12.9 33.3 21.9 3.9-1.3 32.5-11.4 38.6-22.9.1-3.4 1.2-34.8.7-43.8 0-.1.2-8.4-1.2-15.9-1.1-6-4.8-12.4-10-17-6.7-6.1-15.7-9.3-26-9.3-17.7 0-28.9 7-34.3 21.3-2.9 7.8-2.9 20.8-2.9 20.9v.1c.1.1-1.3 33.6 1.8 44.7z" fill="#000000" stroke-width="none" opacity="1"></path></g></g><g id="svga-group-mouth-single-move" transform="matrix(1,0,0,1,0,0)"><g id="svga-group-mouth-single"><path id="SvgjsPath5348" d="M115.55 116.07c.18-.22-.08-.5-.28-.38-.11-.02-.24.02-.28.16-.02.06-.04.11-.06.16-2.25 2.41-5.13 2.38-8.06 1.18-1.75-.72-2.75-.81-4.41.16-1.52.89-2.64.71-4.26.25-.82-.23-1.58-.39-2.42-.19-2.78.69-4.07 4.88-7.37 3.7-.23-.08-.35.19-.25.36-.03.1-.01.21.09.28.79.59 1.66.91 2.55 1.06-.05.1-.04.24.08.32a16.452 16.452 0 0 0 22.95-4.33c.01-.01 0-.02 0-.02.68-.64 1.21-1.47 1.53-2.53.07-.05.14-.11.19-.18zm-21.66 3.06c2.17-1.87 3.47-.92 5.85-.56.75.11 1.36.04 2.05-.26.57-.25 1.05-.69 1.63-.93 1.66-.67 2.46-.03 3.82.53.94.39 1.85.69 2.87.71 1.65.03 3.19-.55 4.43-1.56-.3.6-.68 1.1-1.12 1.5-2.76 2.54-7.99 1.69-11.5 1.81-4.06.13-8.82 3.46-12.67 1.43 1.89.16 3.19-1.42 4.64-2.67zm-2.45 3.79c1.08.08 2.2-.08 3.3-.36 1.28-.33 2.5-.84 3.78-1.18 1.85-.5 3.71-.54 5.61-.48 2.69.09 6.01.12 8.42-1.17-5.17 6.28-14.19 7.69-21.11 3.19z" fill="#000000" stroke-width="none" opacity="1"></path></g></g><g id="svga-group-eyes-left-move" transform="matrix(1,0,0,1,0,0)"><g id="svga-group-eyes-left"><g id="svga-group-eyesback-left"></g><g id="svga-group-eyesiriswrapper-left"><g id="svga-group-eyesiriscontrol-left" transform="matrix(1,0,0,1,0,0)"><g id="svga-group-eyesiris-left"><path id="SvgjsPath3692" d="M85 84.8c-1-1.9-3.2-2.7-5.2-2-2.2.8-3.8 3-3.1 5.4.4 1.2 1.5 2.4 2.8 2.7.5.1 1 .1 1.5.1.5.1 1.1 0 1.7-.2 2.4-.9 3.5-3.7 2.3-6z" fill="#ffffff" stroke-width="none" opacity="1"></path><path id="SvgjsPath3693" d="M83.4 85.8c0-.1 0-.1-.1-.1-.6-1.1-2-1.5-3.1-1 .2.2.4.5.6.7.2.3.5 1 .1 1.2-.4.2-1 0-1.3-.2-.2-.1-.3-.3-.5-.5 0 .1-.1.1-.1.2-.1.2-.1.4-.1.6-.2.7 0 1.4.5 1.9.2.2.5.3.8.4.6.3 1.2.4 1.8.1-.1-.1-.2-.2-.2-.4 0-.3.2-.6.5-.7.3-.1.6 0 .7.2.3-.3.5-.7.6-1.1.2-.3.1-.9-.2-1.3zm-2 5.3H81c-.5 0-1 0-1.4-.1-1.3-.3-2.4-1.4-2.9-2.8-.8-2.5.9-4.8 3.1-5.5 2.1-.8 4.4.1 5.4 2 .6 1.1.7 2.5.2 3.7s-1.4 2.1-2.6 2.5c-.5.2-1 .2-1.4.2zm-.4-.3c.6.1 1.1 0 1.6-.2 1.1-.4 2-1.2 2.4-2.4.4-1.1.4-2.3-.2-3.4-.9-1.8-3.1-2.6-5-1.9-2.1.7-3.7 2.9-3 5.2.4 1.3 1.5 2.3 2.7 2.6.5.1 1 .1 1.5.1z" fill="#000000" stroke-width="none" opacity="1"></path></g></g></g><g id="svga-group-eyesfront-left"><path id="SvgjsPath4675" d="M81 74.4c-6.9 0-12.5 5.6-12.5 12.5S74.1 99.4 81 99.4s12.5-5.6 12.5-12.5S87.9 74.4 81 74.4zm6.5 16c-.9.6-3.7 2-7.2 2-3.5-.1-9.8-2.3-10.4-3.1s1.8-2.9 2.8-3.6 3.7-2.9 6.9-3c3.2-.1 5.5.7 7.5 1.9s3.3 3.3 3.3 3.3-2.1 1.9-2.9 2.5z" fill="#ffffff" stroke-width="none" opacity="1"></path><path id="SvgjsPath4676" d="M66.7 88.5c.6.2 1.2.3 1.7.3.3 0 .6 0 .9-.1-.1.4.1.6.2.7.2.2.5.4.9.6-.6.2-1.3.4-1.8.7-.2.1-.3.4-.2.6.1.1.2.2.4.2.1 0 .1 0 .2-.1.8-.5 2.4-.9 2.4-.9.1 0 .1 0 .2-.1.3.1.6.3.9.4-.4.2-1 .5-1.3.8-.2.2-.2.4 0 .6.1.1.2.1.3.1.1 0 .2 0 .3-.1.6-.5 1.7-.9 1.7-1 .1 0 .1-.1.1-.1.2.1.5.2.7.2-.2.1-.4.3-.4.5-.1.2 0 .5.2.6h.2c.2 0 .3-.1.4-.2.1-.2.5-.4.8-.5 1.8.5 3.8.9 5.6.9h.3c5.1-.1 8.6-3.9 8.8-4 .2-.2.1-.4 0-.6-.2-.2-.4-.2-.6 0 0 0-3.5 3.7-8.2 3.8-4.9.2-10.4-2.3-11.3-3 .2-.9 4.3-4.9 7.3-5.5 3-.7 9.7-.4 12.9 5.1.1.2.4.3.6.2.2-.1.3-.4.2-.6-3.4-6-10.5-6.3-13.8-5.6-1.2.3-2.5 1-3.8 1.9-.2 0-.5-.1-.7-.1 2.8-2 6.2-2.9 9.7-2.6 4.7.5 8.1 3.8 8.1 3.8.1.1.2.1.3 0 .1-.1.1-.2 0-.3 0 0-3.5-3.5-8.4-3.9-3.8-.4-7.4.7-10.4 2.9-1-.2-1.9-.4-2-.5-.2-.2-.4-.1-.6 0-.2.2-.1.4 0 .6.3.2 1 .4 1.7.6-.4.4-.8.7-1.2 1.2-.6 0-1.4 0-2-.3-.2-.1-.5 0-.6.2s0 .5.2.6c.5.2 1.1.3 1.7.4 0 .1 0 .1.1.2h.1c.1 0 .1 0 .2-.1 0-.1.1-.1.1-.2h.6c-.3.3-.6.6-.8.9h-.1s-1.3.4-2.7-.1c-.2-.1-.5 0-.5.3.1.3.2.5.4.6zm5.8-3.4c-.3.2-.6.5-.9.7l-.8.2c.3-.3.7-.7 1.1-1 .1 0 .4 0 .6.1z" fill="#000000" stroke-width="none" opacity="1"></path></g></g></g><g id="svga-group-eyes-right-move" transform="matrix(1,0,0,1,0,0)"><g id="svga-group-eyes-right"><g id="svga-group-eyesback-right"></g><g id="svga-group-eyesiriswrapper-right"><g id="svga-group-eyesiriscontrol-right" transform="matrix(1,0,0,1,0,0)"><g id="svga-group-eyesiris-right"><path id="SvgjsPath3694" d="M123.4 84.8c-1-1.9-3.2-2.7-5.2-2-2.2.8-3.8 3-3.1 5.4.4 1.2 1.5 2.4 2.8 2.7.4.1.9.1 1.4.1.5.1 1.1 0 1.7-.2 2.5-.9 3.6-3.7 2.4-6z" fill="#ffffff" stroke-width="none" opacity="1"></path><path id="SvgjsPath3695" d="M121.8 85.8c0-.1 0-.1-.1-.1-.6-1.1-2-1.5-3.1-1 .2.2.4.5.6.7.2.3.5 1 .1 1.2-.4.2-1 0-1.3-.2-.2-.1-.3-.3-.5-.5 0 .1-.1.1-.1.2-.1.2-.1.4-.1.6-.2.7 0 1.4.5 1.9.2.2.5.3.8.4.6.3 1.2.4 1.8.1-.1-.1-.2-.2-.2-.4 0-.3.2-.6.5-.7.3-.1.6 0 .7.2.3-.3.5-.7.6-1.1.2-.3 0-.9-.2-1.3zm-2.1 5.3h-.4c-.5 0-1 0-1.4-.1-1.3-.3-2.4-1.4-2.9-2.8-.8-2.5.9-4.8 3.1-5.5 2.1-.8 4.4.1 5.4 2 .6 1.1.7 2.5.2 3.7s-1.4 2.1-2.6 2.5c-.5.2-.9.2-1.4.2zm-.3-.3c.6.1 1.1 0 1.6-.2 1.1-.4 2-1.2 2.4-2.4.4-1.1.4-2.3-.2-3.4-.9-1.8-3.1-2.6-5-1.9-2.1.7-3.7 2.9-3 5.2.4 1.3 1.5 2.3 2.7 2.6.5.1 1 .1 1.5.1z" fill="#000000" stroke-width="none" opacity="1"></path></g></g></g><g id="svga-group-eyesfront-right"><path id="SvgjsPath4677" d="M119 74.4c-6.9 0-12.5 5.6-12.5 12.5s5.6 12.5 12.5 12.5 12.5-5.6 12.5-12.5-5.6-12.5-12.5-12.5zm.2 17.9c-3.5.1-6.3-1.4-7.2-2-.9-.6-3-2.5-3-2.5s1.3-2.1 3.3-3.3c2-1.2 4.3-2 7.5-1.9s5.9 2.3 6.9 3 3.4 2.7 2.8 3.6c-.5.8-6.8 3-10.3 3.1z" fill="#ffffff" stroke-width="none" opacity="1"></path><path id="SvgjsPath4680" d="M133.1 87.9c-.1-.2-.3-.3-.5-.3-1.3.5-2.6.1-2.7.1h-.1c-.2-.3-.5-.6-.8-.9h.6c0 .1.1.1.1.2s.1.1.2.1h.1c.1 0 .1-.1.1-.2.6 0 1.1-.1 1.7-.4.2-.1.3-.3.2-.6-.1-.2-.4-.3-.6-.2-.6.3-1.3.3-2 .3l-1.2-1.2c.8-.2 1.5-.4 1.7-.6s.2-.4 0-.6-.4-.2-.6 0c-.2.2-1 .4-2 .5-3-2.2-6.6-3.3-10.4-2.9-4.9.5-8.3 3.9-8.4 3.9-.1.1-.1.2 0 .3.1.1.2.1.3 0 0 0 3.4-3.3 8.1-3.8 3.6-.4 6.9.6 9.7 2.6-.2 0-.5.1-.7.1-1.3-.9-2.6-1.6-3.8-1.9-3.3-.7-10.3-.5-13.8 5.6-.1.2 0 .5.2.6s.5 0 .6-.2c3.2-5.6 9.8-5.8 12.9-5.1 3 .6 7.1 4.6 7.3 5.5-.9.7-6.4 3.2-11.1 3.1s-8.1-3.7-8.2-3.8c-.2-.2-.4-.2-.6 0s-.2.4 0 .6c.1.2 3.7 3.9 8.8 4h.3c1.9 0 3.8-.4 5.6-.9.3.1.7.4.8.5.1.1.2.2.4.2h.2c.2-.1.3-.4.2-.6-.1-.2-.3-.4-.4-.5.2-.1.5-.2.7-.2l.1.1s1.2.5 1.7 1c.1.1.2.1.3.1s.2 0 .3-.1c.2-.2.1-.4 0-.6-.4-.3-.9-.6-1.3-.8.3-.1.6-.3.9-.4 0 0 .1.1.2.1 0 0 1.5.4 2.4.9.1 0 .1.1.2.1.2 0 .3-.1.4-.2.1-.2 0-.5-.2-.6-.5-.3-1.3-.6-1.8-.7.4-.2.7-.4.9-.6.1-.1.2-.3.2-.7.2 0 .5.1.9.1.5 0 1.1-.1 1.7-.3.1-.2.2-.4.2-.7zm-5.4-3c.4.3.7.6 1.1 1-.5-.1-.8-.2-.8-.2-.3-.2-.6-.5-.9-.7.1 0 .4 0 .6-.1z" fill="#000000" stroke-width="none" opacity="1"></path></g></g></g><g id="svga-group-facehighlight-single"></g><g id="svga-group-eyebrows-left-move" transform="matrix(1,0,0,1,0,0)"><g id="svga-group-eyebrows-left-rotate" transform="matrix(1,1.7453292144864463e-9,-1.7453292144864463e-9,1,1.3121334063725953e-7,-1.391175175058379e-7)"><g id="svga-group-eyebrows-left"><path id="SvgjsPath3774" d="M74.33 71.59c1.52-.07 17.06 3.38 17.49 4.03.43.65-.65 3.02-1.15 3.17-.5.14-15.19-4.53-15.83-4.39-.65.14-6.91 2.59-7.34 2.38-.44-.22 5.32-5.12 6.83-5.19z" fill="#ffffff" stroke-width="none" opacity="1"></path><path id="SvgjsPath3775" d="M67.28 77.2c.35.18.9.08 5.66-1.64.84-.31 1.71-.62 1.97-.69.63.05 4.8 1.29 8.16 2.29 5.89 1.75 7.16 2.1 7.6 2.1.06 0 .11-.01.15-.02.67-.19 1.21-1.59 1.31-1.87.24-.64.45-1.52.11-2.03-.69-1.04-16.86-4.29-17.91-4.24-1.63.08-7.13 4.66-7.31 5.5-.07.26.04.49.26.6zm7.07-5.13c.13-.01.37.01.68.06l2.07 2.3c-1.61-.45-2.16-.55-2.37-.5-.03.01-.08.02-.12.04l-2.21-.88c.86-.59 1.6-1 1.95-1.02zm3.91 2.69-2.22-2.47c.77.13 1.74.32 2.82.54l1.57 2.56c-.84-.25-1.56-.46-2.17-.63zm3.08.9-1.63-2.65c.72.15 1.47.31 2.23.48l.63 2.53c-.43-.13-.84-.25-1.23-.36zm6.77 1.99c-.33-.1-.68-.2-1.05-.3l.67-2.5c.48.12.93.24 1.34.35l-.96 2.45zm1.59-2.28c.3.08.57.16.81.23l-.96 2.45c-.24-.07-.52-.14-.81-.22l.96-2.46zm-3.25 1.8c-.48-.14-.98-.29-1.48-.44l.38-2.46c.61.14 1.2.29 1.76.43l-.66 2.47zm4.1 1.13c-.09-.01-.22-.04-.37-.08l.95-2.41c.14.05.25.09.32.13.11.44-.52 1.99-.9 2.36zm-7.22-2.05c-.01 0-.03-.01-.04-.01l-.65-2.59c.7.16 1.4.32 2.08.48l-.37 2.43c-.34-.11-.69-.22-1.02-.31zm-10.72-1.59c-.12.04-.25.09-.39.14-.53.02-1.48.07-2.24.11.57-.47 1.19-.95 1.79-1.38l1.9.75c-.3.1-.63.23-1.06.38zm-3.91 1.36c.14-.13.31-.28.48-.43.27-.01.6-.03.96-.05-.52.18-1.02.35-1.44.48z" fill="#000000" stroke-width="none" opacity="1"></path></g></g></g><g id="svga-group-eyebrows-right-move" transform="matrix(1,0,0,1,0,0)"><g id="svga-group-eyebrows-right-rotate" transform="matrix(1,1.7453292144864463e-9,-1.7453292144864463e-9,1,1.3123080577770452e-7,-2.0997542549139325e-7)"><g id="svga-group-eyebrows-right"><path id="SvgjsPath3776" d="M125.67 71.59c-1.52-.07-17.06 3.38-17.49 4.03-.43.65.65 3.02 1.15 3.17.5.14 15.19-4.53 15.83-4.39.65.14 6.91 2.59 7.34 2.38s-5.32-5.12-6.83-5.19z" fill="#ffffff" stroke-width="none" opacity="1"></path><path id="SvgjsPath3777" d="M133 76.61c-.18-.84-5.68-5.42-7.31-5.5-1.06-.05-17.22 3.2-17.91 4.24-.34.51-.13 1.39.11 2.03.1.28.65 1.68 1.31 1.87.04.01.08.02.15.02.43 0 1.71-.35 7.6-2.1 3.36-1 7.53-2.24 8.16-2.29.25.07 1.12.38 1.97.69 4.76 1.72 5.3 1.81 5.66 1.64.2-.12.31-.35.26-.6zm-5.4-3.52-2.21.88c-.04-.01-.09-.03-.12-.04-.21-.05-.76.06-2.37.5l2.07-2.3c.31-.04.55-.06.68-.06.35.02 1.09.43 1.95 1.02zm-8.02 2.3 1.57-2.56c1.08-.22 2.05-.41 2.82-.54l-2.22 2.47c-.62.17-1.34.38-2.17.63zm-2.16.63.63-2.53c.76-.17 1.51-.33 2.23-.48l-1.63 2.65c-.38.11-.79.23-1.23.36zm-6.5-.82c.41-.11.86-.23 1.34-.35l.67 2.5c-.37.11-.72.21-1.05.3l-.96-2.45zm.35 2.63c-.3.08-.57.16-.81.22l-.96-2.45c.24-.07.51-.15.81-.23l.96 2.46zm1.61-3.13c.56-.14 1.15-.28 1.76-.43l.38 2.46c-.5.15-.99.29-1.48.44l-.66-2.47zm-4.32 1.23c.07-.04.18-.08.32-.13l.95 2.41c-.16.04-.29.07-.37.08-.39-.36-1.02-1.91-.9-2.36zm7.09.62-.37-2.43c.68-.16 1.38-.32 2.08-.48l-.65 2.59c-.01 0-.03.01-.04.01-.33.1-.68.21-1.02.31zm10.68-2.27 1.9-.75c.6.43 1.22.92 1.79 1.38-.76-.04-1.71-.09-2.24-.11-.14-.05-.27-.1-.39-.14-.43-.15-.76-.28-1.06-.38zm3.54 1.26c.36.02.68.03.96.05.17.15.33.3.48.43-.43-.13-.93-.3-1.44-.48z" fill="#000000" stroke-width="none" opacity="1"></path></g></g></g><g id="svga-group-nose-single-move" transform="matrix(1,0,0,1,0,0)"><g id="svga-group-nose-single"><path id="SvgjsPath3764" d="M95.9 107.5c2 1 4.3 2 6.4 1 2.2-1.1 2.2-3.4 2-5.6-.8-6.5-1.9-13-3.3-19.4-.2-.8-1.4-.5-1.2.3 1 4.7 1.9 9.4 2.6 14.2.3 2.3 1.1 5 .8 7.3-.5 3.6-4.5 2.2-6.6 1.1-.8-.3-1.4.8-.7 1.1z" fill="#000000" stroke-width="none" opacity="1"></path></g></g><g id="svga-group-hair-front"><path id="SvgjsPath4296" d="M81.3 51.3s6.6-12.2 16.8-14c10.3-1.9 18.7 2.8 16.2 10.3s-4.7 20.6 5.6 19.7 17.5 5.9 18.1 12.8c.9 9.5-9.4 16.2-8.1 24.7s10.6 3.7 15.6 9.4-9.4 7.5-10.6 13.4c-1.2 5.9 7.2 13.4 12.2 12.2 0 0-5.9-3.4-2.8-6.9 3.1-3.4 13.2-2 18.1-8.1 6.6-8.1 3.4-20.3-5.3-25.6-8.7-5.3 1.9-11.9 7.2-20.6s-4.1-18.4-16.2-24.3-9.1-11.9-6.6-16.2-4.7-13.4-20-11.5-11.6-3.7-17.5-7.8c-5.8-4.3-13-2.4-17.1 3.2s-16.2 2.5-18.1 9.7c0 0-11.9-4.7-15.9 1.2s-1.9 9.7-7.2 13.4c-5.3 3.7-7.2 11.5-3.1 17.5S32 68.5 30.8 76.9s7.5 10.9 9.4 21.5-4.4 13.4-6.5 20.3 9.4 10.6 17.8 14 1.2 14.7 1.2 14.7 15.3-9.1 11.9-19-7.8-9.4-5.6-15.3 11.2-5 11.2-11.9-4.4-4.6-5-11.9c-.6-7.5 2.5-5.6 4.1-14 1.2-6.4-4.4-9.1-4.1-15.9S75.4 47 81.3 51.3z" fill="#ffffff" stroke-width="none" opacity="1"></path><path id="SvgjsPath4297" d="M166.7 111.5c-.9-5.4-4.3-10.4-9-13.2-1.7-1-2.6-2.1-2.8-3.3-.4-2.4 2.2-5.6 5.1-9 1.8-2.2 3.7-4.5 5.3-7 1.7-2.8 2.1-5.8 1.2-9-1.8-6-8.3-12.1-17.8-16.8-4.6-2.2-7.3-4.6-8-7.2-.8-2.6.4-5 1.9-7.7 1-1.8.8-4.2-.7-6.4-2.6-3.9-9.4-7.9-20.2-6.6-9.9 1.2-11.2-.7-12.9-3.4-.9-1.3-1.8-2.9-3.8-4.2-6.2-4.2-14-2.7-18.5 3.7-1.6 2.2-5 3-8.3 3.6-4 .8-8.1 1.7-9.7 5.3-3.1-1-12.3-3.5-16.1 2-1.8 2.7-2.5 4.9-3 6.9-.7 2.5-1.2 4.3-3.9 6.3-6 4.3-7.6 12.7-3.4 18.9.4.6.6 1.2.5 1.5-.3.9-2.2 1.8-4 2.6-3.5 1.6-7.8 3.5-8.5 8.3-.7 4.8 1.6 7.9 4.1 11.2 2.2 2.9 4.5 5.9 5.3 10.7 1.2 6.7-1 10-3.3 13.6-1.2 1.9-2.5 3.8-3.2 6.2-2.2 7.1 7.4 10.9 15.8 14.3.9.3 1.7.7 2.5 1 1.7.7 2.7 1.7 3.2 3.2 1.3 4.1-2.4 9.9-2.4 10l-2.2 3.5 3.6-2.1c.7-.4 15.9-9.6 12.3-20.2-1.5-4.4-3.2-6.8-4.5-8.6-1.6-2.3-2.2-3.1-1.1-6 .9-2.3 3-3.5 5.3-4.7 2.8-1.5 6-3.2 6-7.5 0-3.9-1.4-5.3-2.6-6.5-1.1-1.1-2.1-2.2-2.4-5.4-.3-3.8.3-4.9 1.3-6.5.9-1.5 2-3.3 2.7-7.3.7-3.7-.7-6.2-1.9-8.7-1.2-2.2-2.2-4.3-2.1-7.3.1-3 2.4-6 5.9-7.6 1.4-.7 2.8-1 4.2-1-1.4.6-2.6 1.6-3.4 3.2-.7 1.3-.8 2.8-.5 4.2.7 2.7 5.4 6.1 2.7 9-.5.6.3 1.5.9.9 1.3-1.5 1.4-3.2.7-5-.8-1.8-2.6-3.2-3.1-5.2-.9-4.1 2.6-6.2 6.1-6.4.4.2.8.4 1.2.7l.9.7.6-1s.1-.3.4-.7c3.2-3.9 7.8-7.7 12.8-8.6 6.5-1.1 10.1 4.8 8.3 10.6-.8 2.5-2.3 4.6-3.1 7-.8 2.3-1 5.3.8 7.3 2 2.2 11 .9 10.4 4.6-.1.8 1.1 1.1 1.2.3.2-1.8 0-2.9-1.6-4-1.8-1.2-4.1.1-5.9-.6-1.8-.3-3.9-.3-4.3-4.5.3-2 .9-4 2-5.7.5-1.1 1.1-2.1 1.5-3.3.9-2.6 1.3-5.5.3-8.1-3.3-8.8-12.4-5-18.7-.1 2.8-3.3 7-6.9 12.1-7.8 6-1.1 11.5.1 14.1 3.1 1.4 1.6 1.8 3.7 1 5.9-1 3.1-4.1 13.6-.2 18.5 1.5 1.9 3.8 2.7 6.9 2.5 4.5-.4 8.7.8 12 3.3 2.9 2.3 4.8 5.4 5 8.6.4 4.5-1.9 8.4-4.1 12.2-2.3 3.9-4.6 8-4 12.5.8 5.5 4.9 6.2 8.5 6.8 2.7.4 5.4.9 7.3 3.1.6.7.9 1.3.8 1.8-.2 1.3-2.5 2.7-4.7 4-2.9 1.8-6.3 3.7-6.9 6.8s.9 6.6 4 9.6c3 2.9 6.7 4.4 9.4 3.7l2.4-.6-2.1-1.2c-.8-.4-2.9-2-3.2-3.6-.1-.6.1-1.2.6-1.7 1.1-1.2 3.6-1.8 6.3-2.4 4.1-.9 8.8-2 11.8-5.8 2.6-4.2 3.8-9.1 2.9-14.2zM140 33.1c1.1 1.6 1.3 3.2.7 4.3-1.3 2.2-3.2 5.6-2.1 9.3 1 3.1 3.9 5.8 9.1 8.4 8.9 4.3 15.2 10.2 16.8 15.5.8 2.6.4 5.1-1 7.4-1.4 2.4-3.3 4.6-5.1 6.7-.2.2-.4.4-.5.7.7-1.2 1.3-2.3 1.7-3.5 1.1-3.3 1.1-7 .1-10.4-2-7-7.9-12.1-14.6-14.5-5.5-2-14.4-2.1-13.2-10.3.5-3.6 3.3-5.7 2.7-9.7-.9-5.7-5.7-8.5-10.8-9.7 8.7-.6 14.1 2.6 16.2 5.8zm-108.2 44c.5-3.7 4.2-5.3 7.4-6.7 2.5-1.1 4.6-2.1 5.1-3.9.3-1 0-2-.8-3.2-3.6-5.2-2.3-12.5 2.9-16.1.3-.2.6-.5.9-.7-1 2-1.6 4.2-1.9 6.6-1 9.3 5.8 19.7-1.8 27.5-2 2.1-4.9 3.8-6.1 6.6-.2.6-.4 1.2-.5 1.7l-1.5-2.1c-2.5-3.2-4.4-5.7-3.7-9.7zm129.9 47c-2.6 3.2-6.9 4.2-10.7 5.1-3.1.7-5.8 1.3-7.4 3-.9 1-1.3 2.2-1.1 3.4.2 1.1.8 2.2 1.6 3-1.5-.5-3.2-1.5-4.7-3-2.6-2.5-3.9-5.5-3.4-7.8.5-2.2 3.4-3.9 6-5.4 2.7-1.6 5.3-3.2 5.7-5.4.2-1.1-.2-2.3-1.3-3.4-2.4-2.7-5.6-3.2-8.5-3.7-3.6-.6-6.3-1.1-6.9-5.1-.6-3.8 1.5-7.4 3.7-11.2 2.4-4.1 4.9-8.3 4.4-13.4-.3-3.8-2.5-7.4-5.8-10-3.6-2.8-8.4-4.1-13.4-3.7-2.3.2-4-.3-5.1-1.7-2.6-3.3-1.4-10.8.5-16.6 1-2.9.5-5.7-1.4-7.9-3-3.5-9.3-4.9-16-3.7C89 38 82.8 47 81 49.9c-2.8-1.5-6.4-1.5-9.9.1-4.1 2-6.8 5.6-7 9.3-.2 3.6 1.2 6.1 2.3 8.3 1.2 2.4 2.3 4.4 1.7 7.4-.7 3.6-1.6 5.2-2.5 6.6-1.1 1.8-2 3.3-1.6 7.7.3 4 1.7 5.4 3 6.7 1.1 1.2 2 2.1 2 5.1 0 3-1.9 4.1-5 5.8-2.4 1.3-5.1 2.7-6.2 5.8-1.4 3.9-.3 5.5 1.4 7.8 1.2 1.7 2.8 3.9 4.2 8.1 2.2 6.4-4.2 12.5-8.3 15.7.7-1.8 1.3-4 1.2-6.1v-.2c-.1-3.4-2-5.6-4.7-7.6-2.3-1.7-5.2-2.9-6.9-5.2-3.1-4.5-.4-7.6 2.3-11 2-2.5 4.2-5.1 4.1-8.5 0-6.3-6.6-11-5-17.4 1.1-4.6 5.9-6.1 7.9-10.1 2-4.2.1-8.8-1.5-12.9-2.7-6.7-2.6-13.3 3-18.6 5.8-5.4 14.1-5.7 21.5-4 .8.2 1.1-1 .3-1.2-9.7-2.2-21.3-.6-26.3 9.1-2.3 4.5-2 8.9-.3 13.5 1.5 3.9 3.6 7.7 2.7 12.1-.7 3.6-4.6 5.4-6.7 8-2.7 3.3-2.6 6.7-1.1 10.6 1.7 4.3 5 7.8 3.8 12.7-.8 3.2-3 5.2-5 7.8-2 2.7-3.5 5.7-1.9 8.9 1.7 3.6 5.7 5.2 8.8 7.5l-2.4-.9c-7.7-3-16.4-6.5-14.7-11.8.7-2.2 1.8-3.9 3-5.8 2.4-3.7 4.9-7.6 3.6-15-.5-2.9-1.5-5.2-2.7-7.2-.6-4.1 1.9-5.8 4.3-8 1.6-1.5 3.2-2.9 4.2-4.8 2.3-4.3 1.6-9.4.8-14-1.4-7.7-2-14.8 3.3-21.1s13.8-8.1 21.5-5.4c.8.3 1.1-.9.3-1.2-8.2-2.9-17-.5-22.3 5.3.2-.7.4-1.3.6-2 .5-1.9 1.1-3.9 2.7-6.3 1.3-2 3.8-2.6 6.2-2.6 4.1 0 8.4 1.7 8.5 1.7l1.1.4.3-1.1c.9-3.3 4.4-4 8.5-4.9l1.5-.3c-.2.2-.4.3-.6.5-2.2 2.1-3.6 5-4.6 7.8-.3.8.9 1.1 1.2.3 1.3-3.7 3.2-7.1 6.8-9 1.4-.8 2.9-1.5 4-2.5l1.2-1.2c3.9-5.4 10.6-6.8 15.8-3.2 1.7 1.1 2.5 2.4 3.3 3.7.6.9 1.2 1.7 1.9 2.4-12.6-1-29.2-1.1-30.3 13.5-.1.8 1.2.8 1.2 0 1.1-14.4 19-13.2 31.2-12.1 1.6.7 3.8 1 7.1.8h.2c6.3.2 15.5 2.6 15.3 10.7-.1 3.8-3.5 6.8-3.1 10.6.6 5.8 7.2 7 11.6 8.2 10 2.6 19.5 11.4 16.9 22.7-.9 4.2-4.7 8-5.5 12.1-.4 1.1-.6 2.2-.4 3.2.3 1.8 1.5 3.3 3.8 4.7 4.2 2.6 7.2 7 8.1 11.9.8 4.5-.3 8.9-3 12.3zm-18.8-29.3c3.5-6.8 9.1-12.4 7.6-20.8-1-5.5-5-9.1-10.1-10.9-4.2-1.5-8.7-1-12.8-2.4-7.9-2.7-4.2-9.5-4.2-15.1-.1-5.9-3.9-11.2-8.9-14-11.7-6.7-27.9.8-34.2 11.8-.4.6.7 1.3 1.1.6 7.4-12.9 30.4-20.5 39.1-4.6 2.3 4.2 1.3 8.1.7 12.5-.2 1.8-.4 3.7.3 5.4 1.9 4.4 7 5 11.2 5.6 9.5 1.2 18.8 6 16.4 17.4-1.4 6.5-7 10.7-8.6 17-1 4 1 7.3 4.1 9.7 2.1 1.7 4.5 2.8 6.6 4.4 2.6 2 3.7 3.3 3.7 6.7 0 3.8-1.4 5.1-4.5 7.2-.7.4 0 1.5.6 1.1 4.1-2.7 7.6-6.7 5-11.7-3.9-7.5-18.9-8.7-13.1-19.9zM79.6 45.9c-7.3-3.2-16.4-1.2-20.5 6.1-1.8 3.2-2.5 7-1.9 10.7.4 2.5 1.5 4.3 2.6 6.5 2.7 5.4 1 9.2-1.9 13.9-2.2 3.5-4.8 7.8-2.9 12 .8 1.7 2.3 2.7 3.4 4.1 5 6.5-.4 7.7-3.2 11-2.1 2.5-3 6.1-2.3 9.3 1.2 5.6 7.7 8.3 7.6 14.3 0 .8 1.2.8 1.2 0 0-3.3-1.5-5.5-3.5-7.9-4.4-5.3-6.2-11.3-.3-16.4 1.9-1.7 4.2-2.8 4.2-5.7.1-3.8-4.1-6.3-5.5-9.4-2.6-6.3 3.3-10.6 5.4-16 1.4-3.7.6-6.4-1.1-9.9-2.8-5.8-3.8-11.4 0-17 4-5.8 11.7-7.3 18-4.5.8.3 1.4-.8.7-1.1z" fill="#000000" stroke-width="none" opacity="1"></path></g><g id="svga-group-glasses-single-move" transform="matrix(1,0,0,1,0,0)"><g id="svga-group-glasses-single"></g></g></g></g></g><rect id="svga-credit-rect" width="200" height="15" x="0" y="185" fill="#ecf0f1" opacity="0.5" style="display: none;"></rect><text id="svga-credit-text" font-family="Avenir Next, Roboto, Helvetica, Arial, sans-serif" font-size="10px" text-anchor="start" font-weight="400" size="10px" anchor="start" weight="400" fill="#333333" x="33.298973083496094" y="182.60824728012085" style="display: none;"><tspan id="SvgjsTspan3610" dy="13" x="33.298973083496094">Created on AvatarMaker.com</tspan></text></g><defs id="SvgjsDefs3562"></defs></svg>